<?xml version="1.0" standalone="no"?>
<!DOCTYPE svg PUBLIC "-//W3C//DTD SVG 1.1//EN" "http://www.w3.org/Graphics/SVG/1.1/DTD/svg11.dtd" >
<svg>
<metadata>
Created by FontForge 20090622 at Mon May 25 23:37:20 2015
 By deploy user
&#194;&#169; 2001, Apostrophic Labs. All rights reserved. Visit www.apostrophiclab.com or email info@apostrophiclab.com for more info.
</metadata>
<defs>
<font id="Konfuciuz" horiz-adv-x="497" >
  <font-face 
    font-family="Konfuciuz"
    font-weight="400"
    font-stretch="normal"
    units-per-em="1000"
    panose-1="2 0 0 0 0 0 0 0 0 0"
    ascent="800"
    descent="-200"
    x-height="461"
    cap-height="821"
    bbox="-206 -436 1168 1144"
    underline-thickness="50"
    underline-position="-125"
    unicode-range="U+0006-U+2122"
  />
<missing-glyph horiz-adv-x="500" 
 />
    <glyph glyph-name=".notdef" horiz-adv-x="500" 
 />
    <glyph glyph-name=".null" horiz-adv-x="0" 
 />
    <glyph glyph-name="nonmarkingreturn" horiz-adv-x="500" 
 />
    <glyph glyph-name="space" unicode=" " horiz-adv-x="300" 
 />
    <glyph glyph-name="space" unicode="&#xa0;" horiz-adv-x="300" 
 />
    <glyph glyph-name="dotaccent" horiz-adv-x="131" 
d="M124 710q0 53 -12 67q-6 6 -16 6q-6 0 -14 -2.5t-16 -6.5t-14.5 -8.5t-9.5 -8.5l2 3q-6 -6 -6 -19q0 -8 0.5 -12t1.5 -10q3 -15 5.5 -23.5t5.5 -12t7.5 -4.5t11.5 -1q8 0 17.5 3t17.5 8t13.5 10.5t5.5 10.5z" />
    <glyph glyph-name="ring" horiz-adv-x="372" 
d="M378 813q0 16 -25 20l-143 138q-51 -56 -91 -88.5t-66 -44.5l2 1q-11 -3 -17 -10t-6 -11q0 -15 24 -21q35 -36 86.5 -98.5t118.5 -155.5l25 29l-60 111q41 45 73 71.5t57 37.5h-1q11 5 17 8.5t6 12.5zM249 786l-48 -59l-32.5 54.5t-25.5 41.5q3 5 7.5 10.5l9.5 11.5
l48 54q14 -20 26.5 -36t23.5 -28l8 -10l8 -10l-6.5 -8.5t-7.5 -8.5q-3 -4 -6 -7t-5 -6v1zM136 833q5 0 5 -6h-1q-2 2 -4 6z" />
    <glyph glyph-name="caron" horiz-adv-x="372" 
d="M371 869l-84 31q-12 -37 -38 -68l-49 -59l-34.5 59.5t-24.5 39.5q-12 21 -27 24l-20 -3.5t-29 -5.5q-33 -9 -33 -23q0 -15 24 -21q35 -36 86.5 -98.5t118.5 -155.5l25 29l-60 111q44 48 80 75.5t65 40.5v24z" />
    <glyph glyph-name="dotlessi" unicode="&#xd;" horiz-adv-x="402" 
d="M64 373q5 3 18.5 9.5t29.5 13t31 11.5t22 5l3 -1l1 -378q0 -39 -52 -73l88 -40q14 20 72 80l160 162l-36 18l-171 -137l-1 335q2 18 13 34.5t33 29.5l-77 71l-33 -36l-161 -34z" />
    <glyph glyph-name="fraction" horiz-adv-x="448" 
d="M327 758q-5 -38 -24 -93.5t-55 -128.5q-22 -43 -49 -103l-54 -123.5l-51.5 -125.5t-41.5 -110l-27 -84l108 -7q-19 37 -19 62q0 59 51 173q15 39 36 89l43 99l42.5 91.5t34.5 66.5q56 99 145 188l-14 33z" />
    <glyph glyph-name="fi" horiz-adv-x="627" 
d="M409 706v25l-53 37q-19 -8 -41.5 -13.5t-48.5 -9.5l-315 -43l77 -54l39.5 9.5t36.5 6.5l52 7v-259l-257 -27l81 -58q17 4 41.5 8.5t56.5 8.5l78 8v-550q0 -17 -1.5 -30t-3.5 -23l-123 74l-16 -33q111 -99 140 -137q17 -23 27 -23q17 0 27 39l-1 -1q6 15 8.5 39t3.5 56
v595l232 31v-374q0 -39 -52 -73l88 -40q14 20 72 80l160 162l-36 18l-171 -137v334q3 40 46 65l-77 71l-32 -36l-230 -39v260z" />
    <glyph glyph-name="fl" horiz-adv-x="484" 
d="M394 830l-26 -15l7.5 -24t5.5 -22q-21 -7 -51 -13t-52 -9l-327 -45l77 -54l39.5 9.5t36.5 6.5l52 7v-259l-257 -27l81 -58q17 4 41.5 8.5t56.5 8.5l78 8v-550q0 -17 -1.5 -30t-3.5 -23l-123 74l-16 -33q111 -99 140 -137q17 -23 27 -23q17 0 27 39l-1 -1q6 15 8.5 39
t3.5 56v595l152 19v24l-65 45q-14 -8 -35.5 -13.5t-51.5 -10.5v258l172 24q0 -8 0.5 -17.5t0.5 -19.5v-578q-5 -66 -29 -98q11 -29 24 -53t28 -44q29 0 36 43q6 38 6 152v578q4 67 33 91z" />
    <glyph glyph-name="Lslash" horiz-adv-x="409" 
d="M195 510l-30 -38.5t-32 -36.5v194v22q0 10 -1 16l99 -62l23 35q-45 42 -76 73.5t-51 54.5l1 -1q-11 14 -22 14q-14 0 -22 -17q-16 -51 -16 -92v-292l-162 -140l102 -2q18 20 37 36v-1q5 5 11 9.5t12 9.5v-233q0 -10 -46 -55l78 -72l37 51l355 50l-83 63q-26 -12 -56 -18
h1l-221 -31v305l144 127l-5 23z" />
    <glyph glyph-name="lslash" horiz-adv-x="156" 
d="M197 550l-34 -42t-36 -40v204q4 67 33 91l-94 72l-26 -15q22 -60 22 -148v-259l-154 -133l102 -2q18 20 37 36v-1l15 12v-230q-5 -67 -29 -99q11 -29 24 -53t28 -44q29 0 36 43q6 38 6 152v291l152 134l-5 23z" />
    <glyph glyph-name="Zcaron" horiz-adv-x="625" 
d="M560 431q-18 -7 -37.5 -12.5t-41.5 -10.5l77.5 86t90 92.5t99.5 91t106 81.5l-52 83l-56 -55l-508 -89l83 -62q30 18 94 34l257 45q-57 -56 -118 -123.5l-115 -128.5l-32 -36.5l-29 -33.5l-209 -28l85 -58q15 4 29.5 7t30.5 5q-20 -24 -38.5 -49l-36.5 -49l-61.5 -80
t-67.5 -77l-31 2q-33 0 -70.5 -3.5t-77.5 -8.5l60 -66q32 9 63 13t60 4q45 0 108 -16v1l119.5 -34.5l147 -44.5l156.5 -49l147.5 -47l119 -39.5t72.5 -26.5l184 69v40q-53 -10 -98.5 -14.5t-84.5 -4.5q-22 0 -50 5t-62 14l-601 178q-51 12 -85 18q40 37 74.5 81l69.5 90
l41.5 55.5t43.5 53.5l198 27v25zM733 926l-84 31q-12 -37 -38 -68l-49 -59l-34.5 59.5t-24.5 39.5q-12 21 -27 24l-20 -3.5t-29 -5.5q-33 -9 -33 -23q0 -15 24 -21q35 -36 86.5 -98.5t118.5 -155.5l25 29l-60 111q44 48 80 75.5t65 40.5v24z" />
    <glyph glyph-name="zcaron" horiz-adv-x="689" 
d="M128 299q9 5 27.5 11.5t40.5 12.5l44 11.5l37 9.5l282 58l-76.5 -75.5l-70.5 -67.5l-119 -102.5t-117 -87.5h-8q-100 0 -158 -35l56 -54q36 32 102 32q11 0 39 -4t73 -12q53 -11 156.5 -48t264.5 -101l205 60v38q-125 -12 -187 -12q-32 0 -99 23l-309 92q-33 8 -55 12
q95 71 185 146t178 160q62 57 123 79l-55 86l-54 -55l-587 -116zM558 609l-84 31q-12 -37 -38 -68l-49 -59l-34.5 59.5t-24.5 39.5q-12 21 -27 24l-20 -3.5t-29 -5.5q-33 -9 -33 -23q0 -15 24 -21q35 -36 86.5 -98.5t118.5 -155.5l25 29l-60 111q44 48 80 75.5t65 40.5v24z
" />
    <glyph glyph-name="exclam" unicode="!" horiz-adv-x="156" 
d="M71 751l-26 -15q22 -60 22 -148v-266q-5 -67 -29 -99q11 -29 24 -53t28 -44q29 0 36 43q6 37 6 152v267q4 67 33 91zM136 21q0 53 -12 67q-6 6 -16 6q-6 0 -14 -2.5t-16 -6.5t-14.5 -8.5t-9.5 -8.5l2 3q-6 -6 -6 -19q0 -8 0.5 -12t1.5 -10q3 -15 5.5 -23.5t5.5 -12
t7.5 -4.5t11.5 -1q8 0 17.5 3t17.5 8t13.5 10.5t5.5 10.5z" />
    <glyph glyph-name="quotedbl" unicode="&#x22;" horiz-adv-x="203" 
d="M96 564l19 157q0 3 0.5 7t0.5 7q0 21 -10 34h1q-14 24 -58 50l-21 -18q11 -46 20 -100t15 -113zM180 564l19 157q0 3 0.5 7t0.5 7q0 21 -10 34h1q-14 24 -58 50l-21 -18q11 -46 20 -100t15 -113z" />
    <glyph glyph-name="numbersign" unicode="#" horiz-adv-x="464" 
d="M403 747l-79 69l-27 -14q8 -40 8 -74q0 -27 -3 -58l-1 -11q-12 -2 -26 -4t-28 -3.5t-26 -3l-20 -2.5l1 10q9 57 41 80l-80 69l-29 -13q10 -37 10 -74q0 -26 -3 -59l-2 -21l-146 -21l78 -58q17 4 22.5 5.5t9.5 5.5l-2 -1q1 1 5.5 2t16.5 3h-1l10 1l-11 -113l-139 -20
l80 -59l20.5 5.5t10.5 6.5l-2 -1q1 1 5.5 2t16.5 3h-2h4l-2 -15v1q-11 -62 -32 -90q5 -26 15 -47.5t24 -40.5q9 0 20 9.5t16 29.5v-1q5 17 9 50t9 86v-1l3 26l99 12l-2 -24v2q-5 -29 -13 -51.5t-21 -38.5q12 -51 41 -88q11 0 20.5 9.5t14.5 28.5q8 38 19 135l3 34l127 17v23
l-51 48q-14 -6 -32 -11t-37 -9l11 108l119 16v23l-51 47q-12 -5 -27.5 -8.5l-33.5 -7.5q10 52 40 76zM187 471l-4 -1l12 112l99 12l-11 -111q-11 -2 -25 -4t-27.5 -3.5t-25.5 -2.5t-18 -2z" />
    <glyph glyph-name="dollar" unicode="$" horiz-adv-x="474" 
d="M235 940l-26 -15q11 -29 16 -62.5t6 -71.5l-102 -16l-28 65l-43 -11q11 -44 11 -81q0 -11 -1.5 -36t-4.5 -57t-6 -68t-6.5 -67.5t-6.5 -55.5t-5 -33q-5 -23 -13.5 -43.5t-19.5 -39.5l58 -52q23 37 42 40h-1l123 15l-2 -303l-152 97l-33 -16q39 -45 72.5 -74l65.5 -55
l45 -36q-7 -50 -27 -79q11 -28 24 -52t28 -44q29 0 36 43q2 12 2.5 31t1.5 45q11 1 16 8l15 21l-1 -3q1 1 1.5 2t1.5 2q22 35 44.5 91.5t42 118.5t34 120.5t19.5 98.5q2 12 11.5 24.5t28.5 26.5l-69 62l-37 -44l-103 -15l3 320l167 24v24l-40 31l-125 -19q6 45 31 67z
M134 717l97 14l-3 -319l-129 -18zM291 25l2 333l104 13q-5 -34 -15 -81t-24 -96t-31.5 -94t-35.5 -75z" />
    <glyph glyph-name="percent" unicode="%" horiz-adv-x="659" 
d="M157 766q-29 -89 -58 -146.5t-53 -86.5q-8 -6 -11.5 -12.5t-3.5 -10.5v-13q3 -1 11.5 -2.5t12.5 -2.5l50.5 -6.5t55 -12.5t59 -24.5t62.5 -41.5l31 24q26 82 55 138t58 91zM407 370q-29 -89 -58 -146.5t-53 -86.5q-8 -6 -11.5 -12.5t-3.5 -10.5v-13q3 -1 11.5 -2.5
t12.5 -2.5l50.5 -6.5t55 -12.5t59 -24.5t62.5 -41.5l31 24q26 82 55 138t58 91zM472 758q-5 -38 -24 -93.5t-55 -128.5q-22 -43 -49 -103l-54 -123.5l-51.5 -125.5t-41.5 -110l-27 -84l108 -7q-19 37 -19 62q0 59 51 173q15 39 36 89l43 99l42.5 91.5t34.5 66.5
q56 99 145 188l-14 33zM163 532q-17 7 -34 15l57 146q28 -18 55 -29t49 -19q11 -5 21 -7.5t16 -7.5l-54 -154q-31 20 -59 33zM413 136q-17 7 -34 15l57 146q28 -18 55 -29t49 -19q11 -5 21 -7.5t16 -7.5l-54 -154q-31 20 -59 33z" />
    <glyph glyph-name="ampersand" unicode="&#x26;" horiz-adv-x="529" 
d="M321 397l1 -1q-7 31 -7 50q0 13 17 34l-104 43l-22 -22q38 -53 57 -121l7 -26q-2 -1 -3 -0.5t-2 0.5l-125 -16v206l128 43.5l137 48.5l-83 67h-22q-8 -5 -16.5 -11t-14.5 -11l-39.5 -28t-32 -21t-32.5 -17t-40.5 -17t-56 -20l-78.5 -27l20 -44q26 5 33 7t6 2v30h30
q-1 -56 -1 -95v-67v-57q0 -18 1 -26v-10l-43 -195q2 -57 32 -81q46 -35 163 -35q36 0 71 2t72 6q2 -12 3 -22t1 -18t-1.5 -16.5t-6.5 -19.5q15 -19 33 -37t41 -34q12 4 16.5 11.5t4.5 18.5v8t-1 9q-2 14 -8.5 40t-19.5 67l21 3q6 1 19.5 3t19.5 3l-7.5 32t-4.5 20
q-2 7 -4 20l-7 45h-38l-4 -55q0 -5 -14 -8l-70 248l153 21v25l-74 49q-18 -11 -41.5 -19.5t-54.5 -15.5zM231 42q-87 0 -118 21q-16 8 -16 27l40 189l149 19l71 -249q-37 -3 -68.5 -5t-57.5 -2zM99 532l-20 14q45 -1 45.5 -3.5t-25.5 -10.5z" />
    <glyph glyph-name="quotesingle" unicode="'" horiz-adv-x="120" 
d="M96 564l19 157q0 3 0.5 7t0.5 7q0 21 -10 34h1q-14 24 -58 50l-21 -18q11 -46 20 -100t15 -113z" />
    <glyph glyph-name="parenleft" unicode="(" horiz-adv-x="191" 
d="M280 785q0 -7 -4 -15.5t-12 -14.5l-64 -70.5t-43 -55.5t-26 -52t-13.5 -60t-5 -80.5t-0.5 -112.5q0 -96 23 -170t51.5 -125.5t54.5 -80t32 -34.5q5 -9 8.5 -19t3.5 -16q0 -20 -19 -20q-8 0 -20 8q-6 4 -24 20t-41 43.5t-48.5 66t-46.5 88t-34.5 110.5t-13.5 132
q0 108 26.5 191t60.5 141.5t67 92.5t45 43l-2 -1q13 13 25 13q20 0 20 -22z" />
    <glyph glyph-name="parenright" unicode=")" horiz-adv-x="214" 
d="M132 324q0 -96 -23 -170t-51.5 -125.5t-54.5 -80t-32 -34.5q-5 -9 -8.5 -19t-3.5 -16q0 -20 19 -20q8 0 20 8q6 4 24 20t41 43.5t48.5 66t46.5 88t34.5 110.5t13.5 132q0 108 -26.5 191t-60.5 141.5t-67 92.5t-45 43l2 -1q-13 13 -25 13q-20 0 -20 -22q0 -7 4 -15.5
t12 -14.5l64 -70.5t42.5 -55.5t26 -52t13.5 -60t5 -80.5t1 -112.5z" />
    <glyph glyph-name="asterisk" unicode="*" horiz-adv-x="338" 
d="M302 557q-13 5 -30 14t-37 24l114 12v25l-45 33q-20 -11 -59 -18q22 17 31 17h20l-9 85l-28 9q-10 -21 -24.5 -40.5t-34.5 -39.5q3 38 27 55l-67 56l-27 -14q8 -22 11 -46.5t3 -51.5v-11l-97 79l7 -75q13 -6 26.5 -15.5t30.5 -23.5l-122 -13l59 -47q18 6 46 9
q-15 -10 -33 -13q-19 -37 -23 -76q8 -8 10 -9t8 -1q10 0 27 12q19 15 60 54q-6 -28 -17 -44q6 -19 16 -36.5t22 -33.5q11 0 19.5 8t10.5 25q2 11 3 34.5t1 59.5l94 -74l17 17z" />
    <glyph glyph-name="plus" unicode="+" horiz-adv-x="459" 
d="M413 403q-15 -8 -44 -15t-71 -12l-33 -4l-1 56q2 28 9.5 47t23.5 30l-84 70l-29 -15q10 -28 14.5 -61t4.5 -71l1 -64l-206 -21l70 -56q20 7 44 10.5t56 7.5l36 4v-34q-5 -59 -26 -88q8 -24 20 -46.5t29 -42.5q26 0 33 40q2 17 3.5 51t1.5 85v41l204 22v26z" />
    <glyph glyph-name="comma" unicode="," horiz-adv-x="153" 
d="M18 -116l99 117q20 26 20 47q0 27 -20 70h-28q-15 -42 -37.5 -92t-51.5 -107z" />
    <glyph glyph-name="hyphen" unicode="-" horiz-adv-x="449" 
d="M402 348q-31 -6 -62.5 -11t-59.5 -5q-21 0 -43 3h-231l76 -69q11 2 17 2h11h25h23q13 0 27 1h-1l258 1l11 22z" />
    <glyph glyph-name="period" unicode="." horiz-adv-x="131" 
d="M124 16q0 53 -12 67q-6 6 -16 6q-6 0 -14 -2.5t-16 -6.5t-14.5 -8.5t-9.5 -8.5l2 3q-6 -6 -6 -19q0 -8 0.5 -12t1.5 -10q3 -15 5.5 -23.5t5.5 -12t7.5 -4.5t11.5 -1q8 0 17.5 3t17.5 8t13.5 10.5t5.5 10.5z" />
    <glyph glyph-name="slash" unicode="/" horiz-adv-x="448" 
d="M327 758q-5 -38 -24 -93.5t-55 -128.5q-22 -43 -49 -103l-54 -123.5l-51.5 -125.5t-41.5 -110l-27 -84l108 -7q-19 37 -19 62q0 59 51 173q15 39 36 89l43 99l42.5 91.5t34.5 66.5q56 99 145 188l-14 33z" />
    <glyph glyph-name="zero" unicode="0" horiz-adv-x="433" 
d="M67 630l-26 -9q7 -21 12.5 -40t7.5 -33v1l15 -478q-2 -38 -12 -69l48 -71q14 0 20 5.5t8 16.5q1 7 1 15v15v22l169 19q23 -62 39 -62q21 0 35 73l31 513q1 19 40 53l-79 54l-34 -41l-231 -32q-3 6 -8 13.5t-10 16.5v-1q-2 5 -4.5 8t-4.5 6zM251 346v197l100 13l-13 -224
l-45 31q-16 -13 -42 -17zM320 83l-16 14q-14 -8 -27 -12.5t-24 -6.5l-2 -1v214l85 12l-10 -181q-2 -24 -6 -39zM122 527l68 9v-199l-61 -9zM135 269l20.5 6t23.5 5l11 1v-211l-51 -7l-8 209z" />
    <glyph glyph-name="one" unicode="1" horiz-adv-x="235" 
d="M16 623l55 -64q11 8 18.5 16.5t14.5 17.5q8 11 17.5 22.5t17.5 18.5l2 -543q0 -39 -52 -73l94 -43l18 92l-1 542q2 18 13 34.5t33 29.5l-77 71l-35 -39z" />
    <glyph glyph-name="two" unicode="2" horiz-adv-x="423" 
d="M382 -58l49 35v25l-239 33l-88 302l210 -31l52 -48l66 85q-51 13 -62 50q-23 88 -54.5 163.5t-72.5 139.5q-18 33 -31 33t-22 -19l-90 -150l25 -34l84 95q15 -20 28 -44.5t26 -53.5q15 -40 27 -79t21 -80l-199 29q-9 2 -20 8l-25 14l-65 -45q43 -30 51 -52v1l89 -333
l137 -18h-1q32 -5 53.5 -12t33.5 -15z" />
    <glyph glyph-name="three" unicode="3" horiz-adv-x="385" 
d="M99 669l-34 -41l-7 -29l227 39l-29 -183l2 -24l-129 -10l-67 -38l64 -58q22 36 41 40h-1l142 8q-5 -35 -15.5 -85.5t-26 -102.5t-34 -98.5t-38.5 -73.5l-143 108l-34 -17l33 -36l32 -35l56 -62.5t38 -50.5v1q8 -17 21 -17t38 37q14 23 29 56t29 71.5t27.5 80t24 81t18 75
t10.5 62.5q2 12 11.5 24.5t28.5 26.5l-69 62l-17 -21v17v19q1 13 4.5 34.5l7.5 45.5t8.5 46t8.5 37q5 17 14 36.5t21 39.5l-39 20l-47 -50z" />
    <glyph glyph-name="four" unicode="4" horiz-adv-x="395" 
d="M97 621l-20 -15q5 -29 6.5 -51t1.5 -39l2 -218q0 -43 -62 -70l64 -64q26 18 79 38t134 40v-158q-5 -60 -25 -88q18 -49 49 -87q25 0 32 40v-1q6 34 6 136l-2 511q5 56 33 78l-84 69l-29 -14q18 -59 18 -133l2 -300l-153 -30l-2 259q0 13 20 47z" />
    <glyph glyph-name="five" unicode="5" horiz-adv-x="404" 
d="M362 713q-34 -22 -95 -32h1l-137 -18l-72 -236v1q-8 -22 -51 -52l65 -45l25 14t20 8l199 29q-6 -28 -16.5 -66.5t-22.5 -78l-23 -74t-19 -54.5q-13 -30 -26 -54.5t-28 -43.5l-84 95l-25 -34l90 -150q9 -19 22 -19t31 33q20 32 43.5 85t45.5 112.5t40.5 118t30.5 101.5
q11 37 62 50l-66 85l-52 -49l-208 -31l69 205l239 34v25z" />
    <glyph glyph-name="six" unicode="6" horiz-adv-x="494" 
d="M447 -83l63 59q-35 29 -35 40l-24 186l28 23v25l-369 38q13 34 24.5 60.5t24 50t27.5 47.5t36 54q36 54 74 90t63 46h-1q26 10 42 13.5t30 3.5q6 0 13.5 -0.5t15.5 -1.5q13 -1 38 -2t48 -1v40l-199 26q-5 -5 -13.5 -12.5l-15.5 -13.5q-32 -29 -74.5 -72t-84.5 -112
l-26 -44.5t-19.5 -36l-16 -31t-14.5 -29.5l-17 -35.5t-22 -42.5l1 1q-5 -8 -6.5 -16t-1.5 -18q0 -14 2 -31t5 -36q4 -24 7 -50.5t3 -53.5q0 -9 -0.5 -18t-1.5 -18q-1 -43 -15 -112l39 -13l32 80l305 -41zM116 139q0 49 -3 94l263 -31q8 -2 13 -4l21 -181l-294 39v83z" />
    <glyph glyph-name="seven" unicode="7" horiz-adv-x="531" 
d="M498 376q-26 -5 -53 -9.5t-52 -6.5q25 50 48 105.5t49 127.5q10 26 52 65l-64 73l-35 -39l-415 -34l82 -70q11 8 23 13t26 7l255 20q-23 -78 -48.5 -143t-55.5 -122h-209l77 -66h96q-33 -54 -71.5 -103.5t-85.5 -97t-102 -95.5t-121 -99l13 -40q130 88 221.5 165
t148.5 148q45 58 83 122l178 1l11 22z" />
    <glyph glyph-name="eight" unicode="8" horiz-adv-x="540" 
d="M525 762l-32 -37l-468 -37l77 -66q21 14 45 19l319 24q-26 -86 -57 -158t-71 -139q-10 14 -19.5 29t-20.5 29q-104 125 -333 282l-15 -38l112.5 -92t94 -88t77 -89.5t63.5 -95.5q-54 -75 -127 -143.5t-172 -145.5l14 -37l14 8l10 6l3 3l406 -36l32 -37l58 69
q-38 35 -46 59q-26 72 -48.5 126.5t-48.5 102.5q-5 8 -8 14t-5 9q55 80 90.5 162t67.5 170v-1q9 24 48 59zM331 242q25 -48 46 -103t40 -119l-304 27h-1q68 50 122.5 98t96.5 97z" />
    <glyph glyph-name="nine" unicode="9" 
d="M20 649q35 -29 35 -40l24 -187l-28 -22v-25l363 -38q-2 -2 -3.5 -5t-3.5 -5h1l-58 -86.5t-65.5 -88t-72.5 -79.5t-78 -60l1 1q-13 -5 -24 -8.5t-27.5 -6t-41 -3.5t-64.5 -1v-40l164 -30l81.5 81t109.5 122v-1l50 62.5l38.5 52l33.5 49l36 54.5q-8 20 -12 57.5t-4 82.5
q0 22 1 45.5t3 48.5q1 44 15 113l-39 13l-32 -80l-306 41l-34 42zM416 392l-262 31q-3 0 -6 1t-7 2l-21 181l294 -39v-82v-49q0 -23 2 -45z" />
    <glyph glyph-name="colon" unicode=":" horiz-adv-x="131" 
d="M124 16q0 53 -12 67q-6 6 -16 6q-6 0 -14 -2.5t-16 -6.5t-14.5 -8.5t-9.5 -8.5l2 3q-6 -6 -6 -19q0 -8 0.5 -12t1.5 -10q3 -15 5.5 -23.5t5.5 -12t7.5 -4.5t11.5 -1q8 0 17.5 3t17.5 8t13.5 10.5t5.5 10.5zM130 338q0 53 -12 67q-6 6 -16 6q-6 0 -14 -2.5t-16 -6.5
t-14.5 -8.5t-9.5 -8.5l2 3q-6 -6 -6 -19q0 -8 0.5 -12t1.5 -10q3 -15 5.5 -23.5t5.5 -12t7.5 -4.5t11.5 -1q8 0 17.5 3t17.5 8t13.5 10.5t5.5 10.5z" />
    <glyph glyph-name="semicolon" unicode=";" horiz-adv-x="131" 
d="M130 338q0 53 -12 67q-6 6 -16 6q-6 0 -14 -2.5t-16 -6.5t-14.5 -8.5t-9.5 -8.5l2 3q-6 -6 -6 -19q0 -8 0.5 -12t1.5 -10q3 -15 5.5 -23.5t5.5 -12t7.5 -4.5t11.5 -1q8 0 17.5 3t17.5 8t13.5 10.5t5.5 10.5zM48 -116l99 117q20 26 20 47q0 27 -20 70h-28
q-15 -42 -37.5 -92t-51.5 -107z" />
    <glyph glyph-name="less" unicode="&#x3c;" horiz-adv-x="379" 
d="M376 576v-33q-38 -9 -68 -25.5t-60 -35.5l-30 -18q-20 -12 -40.5 -30.5l-41.5 -38.5l-24.5 -22.5l-27.5 -24.5q24 6 47 6q7 0 22.5 -10t32.5 -23l31.5 -25t18.5 -16h-1l141 -136l-34 -17l-34 22.5l-37 25.5l-59 40l-57.5 39t-50.5 31.5t-37 19.5h1q-12 4 -13 17l-30 39
q8 7 20.5 20l21.5 22l73.5 71t92.5 74q11 7 19.5 17.5t15.5 21.5q3 5 9.5 13.5t8.5 11.5z" />
    <glyph glyph-name="equal" unicode="=" horiz-adv-x="443" 
d="M394 332l-391 -66l83 -57l361 54v25zM442 375v25l-53 44l-391 -66l83 -57z" />
    <glyph glyph-name="greater" unicode="&#x3e;" horiz-adv-x="379" 
d="M30 144l34 -17l34 22.5l37 25.5l58.5 40l58 39t50.5 31.5t37 19.5h-1q10 4 13 17l30 39q-8 7 -20.5 20l-21.5 22l-72 69.5t-95 75.5q-11 7 -20 17.5t-15 21.5q-3 5 -9 13.5l-8 11.5l-90 -36v-33q38 -9 68 -25.5t60 -35.5l30 -18q20 -12 40.5 -30.5l41.5 -38.5
q11 -11 24.5 -23l27.5 -25q-12 3 -23.5 5t-23.5 2q-7 0 -22.5 -10t-32.5 -23l-31.5 -25t-18.5 -16h1z" />
    <glyph glyph-name="question" unicode="?" horiz-adv-x="417" 
d="M311 275l-190 27l20 -117l-35 -79l-43 11q11 44 11 81q0 20 -2 27t-4 15q-2 5 -4 11t-4 14q-5 23 -13.5 44t-19.5 40l58 52q22 -37 41 -40l186 -22q-4 33 -11.5 71.5t-19 77.5t-26.5 74t-33 60l-124 -99l-34 17l87 103.5t53 72.5v-1q7 17 21 17q13 0 38 -37
q21 -35 40 -79.5t33.5 -91.5t25 -94t15.5 -86q2 -12 11.5 -24.5t28.5 -26.5l-69 -62zM147 1q0 53 -12 67q-6 6 -16 6q-6 0 -14 -2.5t-16 -6.5t-14.5 -8.5t-9.5 -8.5l2 3q-6 -6 -6 -19q0 -8 0.5 -12t1.5 -10q3 -15 5.5 -23.5t5.5 -12t7.5 -4.5t11.5 -1q8 0 17.5 3t17.5 8
t13.5 10.5t5.5 10.5z" />
    <glyph glyph-name="at" unicode="@" horiz-adv-x="719" 
d="M551 -1l37.5 17l31.5 14q17 7 28 12t17.5 11t10.5 14.5t6 21.5q4 29 5.5 53t1.5 44v381q1 10 10.5 22.5t31.5 29.5l-74 61l-32 -42l-522 -40q-5 14 -13.5 33.5l-19.5 45.5l-38 -12q13 -54 18 -90v2l8 -613q-2 -33 -13 -69l51 -71q8 0 16.5 5.5t10.5 16.5v58l354 14v2h13
v38l-40 33q-19 -8 -32.5 -12.5t-24.5 -5.5l-271 -8l-10 572l515 40l-5 -479l-41 -21q-2 17 -2 31v26l-2 242q0 70 -53 101l1 -1q-19 14 -62.5 28t-100.5 14q-34 0 -68 -6q-5 -1 -18 -2.5t-43 -7.5q9 -40 15.5 -81.5t10.5 -86.5l-89 -13v-24l31 -26l-37 -171q0 -12 -39 -45
l72 -66l35 44l289 35zM272 165h42l-3 110l200 29l2 -175l-278 -33l30 164l4.5 -52t2.5 -43zM314 443v6q0 1 17 1h11q111 -4 139 -20h-1q31 -19 31 -54v-9l-198 -26z" />
    <glyph glyph-name="A" unicode="A" horiz-adv-x="550" 
d="M346 773h-27q-17 -36 -92 -80q-52 -32 -119 -60.5t-150 -55.5l13 -40q57 14 106.5 29t94.5 33q9 -30 9 -63v-71q0 -10 -0.5 -19t-0.5 -18l-314 -30l88 -58q34 7 72.5 12t86.5 9l62 6l-6.5 -42.5l-7.5 -46.5q-16 -88 -77 -190q-50 -77 -156 -152l11 -42q67 43 116.5 85.5
t81.5 85.5q31 47 52.5 95t32.5 99q6 29 11 57t8 57l186 17v-303q-5 -61 -26 -89q18 -49 49 -87q26 0 33 40q2 17 3.5 50.5t1.5 84.5v310l213 22v25l-55 45q-37 -10 -76 -17t-82 -12v241q2 28 9.5 47t23.5 30l-84 70l-29 -15q10 -28 14.5 -61t4.5 -71v-250l-183 -17l2 31v29
q0 46 27 97l-44 34q14 6 26 13l24 14h-1q29 16 62.5 29t68.5 24z" />
    <glyph glyph-name="B" unicode="B" horiz-adv-x="416" 
d="M72 881l-35 -13q6 -40 9.5 -69t3.5 -46v-686q-2 -38 -16 -65q19 -61 38 -95q30 0 34 34q6 21 6 87v708l240 -91l-159 -252l57 -24t37.5 -18t22.5 -15.5t12 -16.5q21 -44 21 -91q0 -23 -3 -44t-12 -39l-185 93l-16 -32l20 -14.5l21 -15.5l43 -31l42.5 -31t36 -28t23.5 -22
q11 -11 21 -11q5 0 14 7t18 21q38 62 38 135q0 34 -5.5 64.5t-17.5 56.5q-10 23 -33.5 50t-59.5 37q19 36 41.5 71.5l43 66.5t36.5 53t24 31q8 11 19 20t28 19l-77 58l-27 -40l-268 103z" />
    <glyph glyph-name="C" unicode="C" horiz-adv-x="560" 
d="M54 55v1q-3 -21 -43 -56l77 -65l31 43l471 81l-70 65q-17 -12 -32 -17.5t-29 -6.5l-340 -59l3 443q1 39 5 73.5t11 65.5l12 -10q28 9 60 16t68 12l288 45l-86 57q-27 -8 -52 -12t-53 -7l-233 -35q-20 65 -35 65q-9 0 -17 -18.5t-14 -41.5t-9 -42.5t-3 -21.5z" />
    <glyph glyph-name="D" unicode="D" horiz-adv-x="510" 
d="M68 -34l26 -8q17 17 44.5 28.5t68.5 20.5q51 15 146.5 24t240.5 14l-7 39q-16 1 -39.5 1.5t-40.5 0.5q-35 0 -74.5 -1.5t-81.5 -3.5l179 436l-8 20l-27.5 63.5t-41.5 73.5t-59.5 65t-79.5 38q-58 12 -124.5 22t-153.5 18v-109q0 -39 0.5 -87l1 -99.5t0.5 -104.5v-98
q0 -30 -0.5 -59t-1 -53t-1 -41.5t-0.5 -25.5h48l18 603q0 1 19 1q5 0 11.5 -0.5t14.5 -1.5q45 -5 82 -11t71 -14q42 -11 72.5 -40.5t50.5 -63t29.5 -64.5t9.5 -44v-1l-176 -427q-62 -5 -136.5 -12t-143.5 -15z" />
    <glyph glyph-name="E" unicode="E" horiz-adv-x="542" 
d="M322 793h-26q-20 -34 -97 -74q-84 -45 -366 -127l14 -39q96 21 232 63v-196l-201 -25l83 -61q20 6 50 13t68 13v-301q2 -54 32 -78q46 -35 163 -35q123 0 279 27q-5 22 -10.5 49.5t-10.5 56.5l-10 57.5t-9 54.5h-39v-159q0 -7 -44 -13q-46 -5 -84.5 -8t-71.5 -3
q-87 0 -118 21q-16 9 -16 30v310l360 48v25l-74 49q-25 -14 -65 -26.5t-96 -20.5l-125 -16v206l128 43.5l137 48.5z" />
    <glyph glyph-name="F" unicode="F" horiz-adv-x="502" 
d="M23 651q15 6 30 11t29 7l292 26l-170 -178q3 -3 6.5 -7.5t4.5 -6.5l-1 1q5 -11 12.5 -29.5t12.5 -36.5l-211 -15l84 -63l135 17q3 -42 3 -99q0 -78 -7 -138.5t-21 -105.5l-178 120l-16 -33q78 -69 125.5 -115t65.5 -72q18 -19 26 -19q18 0 35 59q18 60 26.5 135t8.5 169
q0 29 -1 55t-3 49l224 19v25l-72 48q-23 -10 -64 -17t-98 -13q-4 17 -8.5 33t-12.5 33q176 185 268 208l-79 85l-48 -42l-479 -42z" />
    <glyph glyph-name="G" unicode="G" horiz-adv-x="579" 
d="M582 365q-17 -9 -29 -13q2 8 5 16t8 16l-77 68l-36 -12q10 -23 18.5 -50t12.5 -47l-269 -39l86 -58q23 6 49 11t57 10h-1l78 8v-158l-5 5q-17 -12 -32 -17.5t-29 -6.5l-299 -57l3 443q1 39 5 73.5t11 65.5l12 -10q28 9 60 16t68 12l288 45l-86 57q-27 -8 -52 -12t-53 -7
l-233 -35q-20 65 -35 65q-9 0 -17 -18.5t-14 -41.5t-9 -42.5t-3 -21.5l-10 -575v1q-3 -21 -43 -56l77 -65l31 43l365 67v-166q0 -52 -7 -72l-124 81l-18 -31l92.5 -88.5t51.5 -58.5q8 -9 17 -13.5t16 -4.5q33 64 33 183v407l92 12v25z" />
    <glyph glyph-name="H" unicode="H" horiz-adv-x="713" 
d="M631 785l-26 -15q22 -60 22 -148v-151l-20 14q-50 -19 -187 -32l-123 -10q-5 17 -9 33.5t-12 33.5q176 185 268 208l-79 85l-48 -42l-258 -27l81 -67q15 6 30.5 11t29.5 7l68 8l-168 -176q3 -3 6.5 -7.5t4.5 -6.5l-1 1q5 -11 12.5 -30t12.5 -38l-238 -34l82 -61
q22 5 31.5 9l14.5 6l8 2h-1l111 18q3 -41 3 -98q0 -78 -7 -138.5t-21 -105.5l-178 120l-16 -33q78 -69 125.5 -115t65.5 -72q18 -19 26 -19q18 0 35 59q18 60 26.5 135t8.5 169q0 29 -1 55t-3 49l320 25v-298q-5 -66 -29 -98q11 -29 24 -53t28 -44q29 0 36 43q6 38 6 152
v512q4 68 33 92z" />
    <glyph glyph-name="I" unicode="I" horiz-adv-x="427" 
d="M359 821q-24 -17 -80 -27h1l-282 -40l69 -54q14 5 31.5 9t40.5 8h-1l51 7q3 -20 3 -31v-629q-81 -28 -143 -45.5t-107 -25.5l106 -56q44 26 97 45l295 125l-24 37l-163 -58v561q0 27 15 65l-19 20l168 23v25z" />
    <glyph glyph-name="J" unicode="J" horiz-adv-x="369" 
d="M458 826q-33 -20 -105 -30l-369 -45l80 -58q36 11 93 19l71 8q7 -26 12 -55v-544q0 -44 -3 -66l-331 268l-17 -35l50 -45l69 -63.5l76 -71l72 -67.5l55.5 -53.5t27.5 -29.5q9 -11 16 -17t21 -6q25 70 25 183v517q4 29 24 70l-27 24l226 27v24z" />
    <glyph glyph-name="K" unicode="K" horiz-adv-x="703" 
d="M628 478q-38 -13 -82 -22t-98 -14l-257 -29v18l134 104t109 94q40 35 85 61l-40 91h-28q-29 -67 -62 -103q-26 -32 -75.5 -79t-122.5 -109v182q0 51 18 89l-73 70l-29 -15q23 -64 23 -93v-318l-281 -30l85 -59q32 8 69.5 14t81.5 11l45 5v-275q0 -46 -42 -85l61 -67
q28 35 222 207l-24 37q-95 -77 -156 -114v304l34 4l291 -369l198 22v40q-114 7 -186 47q-56 27 -233 268l388 43v25z" />
    <glyph glyph-name="L" unicode="L" horiz-adv-x="409" 
d="M492 33l-83 63q-26 -12 -56 -18h1l-221 -31v582v22q0 10 -1 16l99 -62l23 35q-45 42 -76 73.5t-51 54.5l1 -1q-11 14 -22 14q-14 0 -22 -17q-16 -51 -16 -92v-613q0 -10 -46 -55l78 -72l37 51z" />
    <glyph glyph-name="M" unicode="M" horiz-adv-x="830" 
d="M601 773h-26q-19 -26 -97 -55q-98 -39 -243 -72l-33 84l-39 -13q15 -68 15 -92v-70q0 -214 -66 -373q-29 -73 -70.5 -133t-97.5 -111l33 -33q135 118 205 299q61 165 61 351v48l53.5 8t52.5 9q2 -17 3.5 -31.5t1.5 -25.5v1l-20 -450q0 -42 -63 -70l69 -69l55 92l20 503
q0 14 20 48l-22 15q27 6 58 15q18 -19 24 -35v1l175 -625l171 4v39q-82 21 -119 69q-20 29 -42 86.5t-47 146.5l-76 270q-9 33 -9 67q26 8 57.5 14t66.5 12z" />
    <glyph glyph-name="N" unicode="N" horiz-adv-x="558" 
d="M559 721q-37 -19 -123 -29l-263 -29q38 54 79 74l-65 102l-29 -22q-14 -83 -91 -203q-42 -66 -92 -126t-110 -117l28 -28q54 44 100 90t86 95v-446q0 -50 -17 -70q8 -28 18 -50.5t21 -42.5q29 0 31 22q4 17 6 48.5t2 81.5v539l1 1l22 -15q10 2 35 6l54.5 8.5l58 8.5
t45.5 6l102 11q5 -15 8.5 -30.5t5.5 -31.5v-462q0 -51 -6 -72l-164 122l-17 -34q69 -63 111.5 -106t62.5 -70q11 -14 18.5 -20.5t22.5 -6.5q33 64 33 183v436q2 16 8 34t14 38l-30 26l99 9v25z" />
    <glyph glyph-name="O" unicode="O" 
d="M57 768l-25 -8q13 -54 18 -90v2l8 -613q-2 -35 -13 -69l51 -71q8 0 16.5 5.5t10.5 16.5v58l251 18q26 -68 42 -68q19 0 28 66q4 29 5.5 52.5t1.5 43.5l27 547q1 10 10.5 22.5t31.5 29.5l-74 61l-32 -42l-311 -36q-5 14 -12 30.5l-15 36.5zM383 72l-23 19q-38 -17 -58 -18
l-180 -13l-10 572l303 36l-25 -556q0 -23 -7 -40z" />
    <glyph glyph-name="P" unicode="P" horiz-adv-x="433" 
d="M73 791l-42 -11q12 -46 17.5 -78.5t5.5 -52.5l8 -567q-1 -19 -5.5 -36.5t-15.5 -34.5q11 -32 21.5 -58.5t21.5 -45.5q15 0 23 9t12 26q8 19 8 97l-5 366q30 -25 63.5 -56l63.5 -60l51.5 -51.5t27.5 -29.5q13 -8 23 -8q20 0 30 82v-1q8 45 19 149.5t25 275.5q1 5 7.5 14.5
t22.5 25.5l-67 61l-32 -43l-249 -38zM321 315l-179 127l-20 -20l-2 244l237 36q-8 -134 -17 -229.5t-19 -157.5z" />
    <glyph glyph-name="Q" unicode="Q" horiz-adv-x="498" 
d="M373 54l-5 -21q31 -84 48 -84q19 0 28 66q4 29 5.5 52.5t1.5 43.5l27 547q1 10 10.5 22.5t31.5 29.5l-74 61l-32 -42l-311 -36q-5 14 -13.5 33.5l-19.5 45.5l-38 -12q13 -54 18 -90v2l8 -613q-2 -34 -13 -68l26 -36q-9 -3 -17 -6l-16 -6l53 -60q38 16 67 23t55 7
q42 0 96 -15h-1q136 -45 229.5 -79.5t150.5 -62.5l183 65v38q-54 -6 -99 -9.5t-83 -3.5q-20 0 -45.5 5t-54.5 14l-132 40.5l-90.5 27l-58 16.5t-34.5 9q12 14 23.5 31t16.5 32q7 20 7 39q0 61 -63 106q29 54 55.5 89.5t56.5 61.5l-75 49l-37 -46l-141 -22l-5 334l303 36
l-25 -556q0 -35 -17 -58zM153 246l-2 -1l94 14l-51 -107q53 -50 61 -98q-3 -37 -12 -54.5t-23 -30.5q-10 2 -21 2h-22q-32 0 -55 -4l-3 268q8 3 16.5 5.5t17.5 5.5z" />
    <glyph glyph-name="R" unicode="R" horiz-adv-x="433" 
d="M482 -132l4 18q-24 17 -59 52q-45 44 -76 82.5t-50 72.5q-20 34 -31 86t-12 103l40.5 -42l25.5 -28l3 -3q13 -9 24 -9q20 0 30 82v-1q8 45 19 149.5t25 275.5q1 5 7.5 14.5t22.5 25.5l-67 61l-32 -43l-249 -38l-34 65l-42 -11q12 -46 17.5 -78.5t5.5 -52.5l8 -567
q-1 -20 -6 -38t-16 -35l43 -102q28 0 36 35q8 19 8 97l-5 366l45.5 -39t42.5 -40q-2 -17 -3 -36t-1 -38q0 -48 9 -94.5t28 -84.5q39 -75 147 -186q17 -14 32 -20t42 -11zM321 315l-57 40q7 42 23 93l-33 13q-11 -23 -18.5 -41.5t-12.5 -35.5l-81 58l-20 -20l-2 244l237 36
q-8 -134 -17 -229.5t-19 -157.5z" />
    <glyph glyph-name="S" unicode="S" horiz-adv-x="474" 
d="M58 829q11 -44 11 -81q0 -11 -1.5 -36t-4.5 -57t-6 -68t-6.5 -67.5t-6.5 -55.5t-5 -33q-5 -23 -13.5 -43.5t-19.5 -39.5l58 -52q22 36 41 40l292 35q-5 -36 -16 -86t-26.5 -102t-34 -97.5t-37.5 -72.5l-209 132l-33 -16q37 -43 70.5 -72l63.5 -54l57 -48.5t33 -34.5v1
q8 -17 21 -17t38 37q14 23 29 56t29 71.5t27.5 80t24 81t18 75t10.5 62.5q2 12 11.5 24.5t28.5 26.5l-69 62l-37 -44l-297 -42l35 323l329 48v24l-40 31l-294 -45l-28 65z" />
    <glyph glyph-name="T" unicode="T" horiz-adv-x="494" 
d="M525 639q-26 -11 -57.5 -18.5t-67.5 -12.5v64q1 15 2 27t3 22l221 18l-48 -89l32 -16q90 105 153 137l-90 65l-32 -39l-230 -19l-71 57l-27 -15q4 -11 7.5 -23.5t5.5 -25.5l-198 -16l1 13q0 19 -6 67h-35q-6 -123 -73 -196q23 -65 36 -65q15 0 33 28h-1q11 16 19 34.5
t15 42.5l4 18l212 18q1 -11 1.5 -21.5t0.5 -21.5v-73l-201 -26l86 -58q23 6 49 11t57 10h-1l10 1v-442q-5 -67 -29 -99q11 -29 24 -53t28 -44q29 0 36 43q6 38 6 152v451l179 24v25z" />
    <glyph glyph-name="U" unicode="U" horiz-adv-x="516" 
d="M555 42l-84 62q-19 -9 -53 -18h2l-11 -2v17q0 70 27 207q16 72 34 127t37 94q26 53 58.5 101t73.5 94l-17 33q-30 -24 -62 -58t-64 -79q-52 -77 -80 -153q-20 -49 -36 -119t-30 -167v1q-9 -50 -24 -79l23 -28l-233 -31q21 206 50 353.5t69 243.5l94 -109l26 30
q-32 48 -58 92.5t-48 86.5q-7 7 -13 10t-9 3q-25 0 -68 -123q-32 -103 -58 -241t-49 -317v1q-8 -44 -53 -67l87 -62l27 37z" />
    <glyph glyph-name="V" unicode="V" horiz-adv-x="632" 
d="M-41 785l-14 -33q89 -89 145 -188q14 -24 34.5 -66.5l42.5 -91.5l43 -99t36 -89q51 -114 51 -173q0 -25 -19 -62l101 7q5 26 13 49t19 46l297 623l-22 16l-90 -82l-250 -534q-18 49 -41.5 107l-48 116l-49 111.5l-44.5 93.5q-36 73 -55 128.5t-24 93.5z" />
    <glyph glyph-name="W" unicode="W" horiz-adv-x="954" 
d="M268 783l-14 -33q47 -47 82 -92.5t63 -94.5l39.5 -80t49.5 -109l-141 -269q-18 49 -41.5 107.5l-48.5 117l-49.5 112.5t-44.5 94q-36 73 -55 128.5t-24 93.5l-125 27l-14 -33q89 -89 145 -188q14 -24 34.5 -66.5l42.5 -91.5l43 -99t36 -89q51 -114 51 -173q0 -25 -19 -62
l101 7q5 26 13 49t19 46l108 219q11 -24 19.5 -46l16.5 -42q51 -114 51 -173q0 -25 -19 -62l101 7q5 26 13 49t19 46l297 623l-22 16l-90 -82l-250 -535l-78 186.5l-50.5 119t-30.5 69t-17 37.5l-3.5 8.5t-3.5 7.5q-36 73 -55 129t-24 94z" />
    <glyph glyph-name="X" unicode="X" horiz-adv-x="733" 
d="M280 646q11 8 23.5 13t26.5 7h-1l101 6q-33 -99 -66 -176t-65 -136l-89 111q-20 25 -32.5 47.5t-15.5 45.5l-100 -12l12 -36q33 -9 75 -60v1l119 -150l-12 -17q-51 -72 -140 -158t-219 -189l13 -40q130 88 221.5 165t148.5 148l14.5 18.5l15.5 20.5l227 -286l205 30v44
q-128 0 -195 42q-20 13 -70.5 68.5t-132.5 153.5q35 60 72.5 141t76.5 186q10 26 52 65l-64 73l-35 -39l-249 -17z" />
    <glyph glyph-name="Y" unicode="Y" horiz-adv-x="443" 
d="M-15 892l-17 -34l22.5 -34l25.5 -37l40 -59l39 -57.5t31.5 -50.5t19.5 -37v1q4 -13 25 -14q10 -28 14.5 -61t4.5 -71v-367q-2 -30 -8 -51.5t-17 -35.5q18 -51 49 -88q24 0 32 38q2 17 3.5 51t1.5 86v367q4 55 34 77l-27 21l10.5 10.5t11.5 12.5v-1l45 45.5l50.5 53.5
l50 57t43.5 57q11 17 24 31.5t28 26.5l-36 90h-33q-19 -84 -67 -164q-12 -20 -39.5 -49l-56.5 -61l-38 -40.5l-32 -35.5l-19 16l-20 -11q15 39 15 73q0 7 -10 22.5t-23 32.5l-25 31.5t-16 18.5v-1z" />
    <glyph glyph-name="Z" unicode="Z" horiz-adv-x="625" 
d="M560 431q-18 -7 -37.5 -12.5t-41.5 -10.5l77.5 86t90 92.5t99.5 91t106 81.5l-52 83l-56 -55l-508 -89l83 -62q30 18 94 34l257 45q-57 -56 -118 -123.5l-115 -128.5l-32 -36.5l-29 -33.5l-209 -28l85 -58q15 4 29.5 7t30.5 5q-20 -24 -38.5 -49l-36.5 -49l-61.5 -80
t-67.5 -77l-31 2q-33 0 -70.5 -3.5t-77.5 -8.5l60 -66q32 9 63 13t60 4q45 0 108 -16v1l119.5 -34.5l147 -44.5l156.5 -49l147.5 -47l119 -39.5t72.5 -26.5l184 69v40q-53 -10 -98.5 -14.5t-84.5 -4.5q-22 0 -50 5t-62 14l-601 178q-51 12 -85 18q40 37 74.5 81l69.5 90
l41.5 55.5t43.5 53.5l198 27v25z" />
    <glyph glyph-name="bracketleft" unicode="[" horiz-adv-x="188" 
d="M46 -26v1q-3 -21 -43 -56l77 -65l31 43l220 38l-70 65q-17 -12 -32 -17.5t-29 -6.5l-89 -16l1 561q1 78 17 142l7 -4l212 41l-84 55l-132 -28q-20 64 -35 64q-9 0 -17 -18.5t-14 -41.5t-9 -42.5t-3 -21.5z" />
    <glyph glyph-name="backslash" unicode="\" horiz-adv-x="448" 
d="M165 758q5 -38 24 -93.5t55 -128.5q22 -43 49 -103l54 -123.5l51.5 -125.5t41.5 -110l27 -84l-108 -7q19 37 19 62q0 59 -51 173q-15 39 -36 89l-43 99l-42.5 91.5t-34.5 66.5q-56 99 -145 188l14 33z" />
    <glyph glyph-name="bracketright" unicode="]" horiz-adv-x="189" 
d="M169 697q1 19 43 56l-77 65l-32 -43l-219 -38l70 -65q17 12 32 17.5t29 6.5l89 16l-1 -561q-3 -79 -17 -143l-7 5l-212 -41l84 -55l132 28q20 -64 35 -64q9 0 17 18.5t14 41.5t9 42.5t3 21.5z" />
    <glyph glyph-name="asciicircum" unicode="^" horiz-adv-x="372" 
d="M33 505l84 -31q12 38 37 68l49 58l35 -58.5t25 -39.5q14 -22 27 -25q6 1 19.5 3.5l28.5 5.5q34 9 34 24q0 16 -25 20q-35 36 -86 99t-118 156l-25 -29l60 -111q-45 -48 -81 -76t-64 -40v-24z" />
    <glyph glyph-name="underscore" unicode="_" horiz-adv-x="400" 
d="M384 44q-31 -6 -62.5 -11t-59.5 -5q-21 0 -43 3h-231l76 -69q11 2 17 2h11h25h23q13 0 27 1h-1l258 1l11 22z" />
    <glyph glyph-name="grave" unicode="`" horiz-adv-x="444" 
d="M179 828l-18 -35q29 -57 51.5 -107t37.5 -92h28q20 40 20 70q0 20 -20 46z" />
    <glyph glyph-name="a" unicode="a" horiz-adv-x="475" 
d="M435 -61l36 13q-12 91 -12 139l-2 242q0 70 -53 101l1 -1q-19 14 -62.5 28t-100.5 14q-34 0 -68 -6h3q-1 0 -13.5 -1t-50.5 -9q9 -40 15.5 -81.5t10.5 -86.5l-89 -13v-24l31 -26l-37 -171q0 -12 -39 -45l72 -66l35 45l289 34zM152 122h42l-3 110l200 29l2 -175l-278 -33
l30 165l4.5 -52.5t2.5 -43.5zM194 400v6q0 1 17 1h11q111 -4 139 -20h-1q31 -19 31 -54v-9l-198 -26z" />
    <glyph glyph-name="b" unicode="b" horiz-adv-x="377" 
d="M71 -112l33 94l198 -30l36 -48l67 61q-29 29 -31 40q-17 174 -29.5 280.5t-22.5 151.5v-1q-12 83 -33 83q-9 0 -22 -8q-14 -17 -51.5 -52l-97.5 -87l27 -27l113 69q14 -64 26 -165t23 -241l-195 30v564q0 66 -6 86q-5 34 -33 34q-11 -18 -20 -41.5t-19 -52.5
q16 -29 17 -65v-516q0 -50 -18 -146z" />
    <glyph glyph-name="c" unicode="c" horiz-adv-x="415" 
d="M27 440l60 -29l-34 -337l-39 -32l54 -79q17 20 29.5 29t22.5 11l222 12q74 14 74 34q0 16 -91 49q-18 -21 -70 -26l-145 -6l33 335l191 -3q33 0 55 1t32 5q34 2 34 33q-18 11 -41.5 20t-52.5 19q-30 -16 -67 -17h1l-140 4q-34 0 -116 14z" />
    <glyph glyph-name="d" unicode="d" horiz-adv-x="381" 
d="M340 -112l38 13q-18 96 -18 146v515q1 36 17 66q-10 29 -19 52.5t-20 41.5q-31 0 -33 -34q-4 -10 -5 -31.5t-1 -54.5v-564l-195 -30q11 140 23 241t25 165l114 -69l27 27l-97.5 87t-51.5 52q-13 8 -22 8q-21 0 -33 -83v1q-10 -45 -22.5 -151.5t-29.5 -280.5
q-2 -11 -31 -40l67 -61l36 48l197 30z" />
    <glyph glyph-name="e" unicode="e" horiz-adv-x="396" 
d="M34 500q9 -83 9 -123v-191q0 -16 1 -43t7 -54.5t18 -50.5t35 -31q10 -6 30 -11.5t44.5 -9.5t52 -6t53.5 -2q36 0 65.5 7t41.5 24q-14 10 -22.5 19t-14 21.5t-9.5 31.5t-7 49h-40l-1 -62q0 -25 -19 -33q-57 0 -90 5t-47 13q-14 6 -21 23.5t-11 38.5t-4.5 41t-0.5 31v61
q30 -22 56.5 -34l48.5 -22l26 -12t13 -7q12 -8 20 -8q17 0 31 34q6 9 16.5 35t22.5 59.5t23.5 70.5t19.5 67q4 14 32 40l-64 53l-31 -39l-226 -32l-21 60zM248 245l-139 44l-5 -6v115l207 28q-6 -23 -14 -49.5t-17 -51.5t-17.5 -46t-14.5 -34z" />
    <glyph glyph-name="f" unicode="f" horiz-adv-x="384" 
d="M356 768q-19 -8 -41.5 -13.5t-48.5 -9.5l-315 -43l77 -54l39.5 9.5t36.5 6.5l52 7v-259l-257 -27l81 -58q17 4 41.5 8.5t56.5 8.5l78 8v-550q0 -17 -1.5 -30t-3.5 -23l-123 74l-16 -33q111 -99 140 -137q17 -23 27 -23q17 0 27 39l-1 -1q6 15 8.5 39t3.5 56v595l246 26
v25l-65 45q-15 -8 -43 -15t-68 -12l-70 -8v261l192 26v25z" />
    <glyph glyph-name="g" unicode="g" horiz-adv-x="511" 
d="M-77 -91v-24l55 -45q28 11 62 19.5t75 13.5l148 20q-8 -23 -15 -50l-14 -56h1l-13.5 -49.5l-12.5 -46.5v1q-12 -37 -35 -50l55 -78l32 11q2 29 7 66.5t13 78.5t18.5 82.5t23.5 77.5l7 21l140 17l-87 57q-6 -2 -12 -3t-13 -3q21 52 48 106.5t58.5 106t67 99.5t75.5 87
l-28 28q-57 -46 -106 -105.5t-85 -123.5q-1 2 -1 5q12 103 18.5 163.5t11 93t7.5 45.5t6 22l-52 71q-9 0 -16.5 -5.5t-9.5 -17.5v-47l-286 -29v-25l28 -23l-50 -268q0 -12 -34 -42l63 -57l34 42l236 32q2 -2 2.5 -5t2.5 -6q1 -3 5 -13q-17 -30 -28 -55.5l-22 -51.5l-8 -18.5
l-8 -19.5l-2 -1zM169 420l181 19l-25 -256l-215 -30l46 264q3 1 6.5 1.5t6.5 1.5z" />
    <glyph glyph-name="h" unicode="h" horiz-adv-x="429" 
d="M387 451l-39 -43l-221 -39v303q4 67 33 91l-94 72l-26 -15q22 -60 22 -148v-577q-5 -67 -29 -99q11 -29 24 -53t28 -44q29 0 36 43q6 38 6 152v211q6 3 12.5 5t11.5 4l-1 -1l195 35q-9 -109 -18.5 -188t-18.5 -134.5t-17.5 -90t-15.5 -55.5l-90 73l-25 -35
q17 -15 28.5 -27t19 -21.5t13 -18t10.5 -17.5q4 -6 7.5 -12l8.5 -14q25 -39 39 -39q27 0 53 88q18 69 35 189t36 299q1 11 38 45z" />
    <glyph glyph-name="i" unicode="i" horiz-adv-x="379" 
d="M64 373q5 3 18.5 9.5t29.5 13t31 11.5t22 5l3 -1v-378q0 -39 -52 -73l88 -40q14 20 72 80l160 162l-36 18l-171 -137v334q3 40 46 65l-77 71l-33 -36l-161 -34zM120 747l-17 -33q45 -50 73.5 -86.5t43.5 -64.5q5 -14 34 -14q11 42 11 74q0 22 -25 38l1 -1z" />
    <glyph glyph-name="j" unicode="j" horiz-adv-x="167" 
d="M67 490l-23 -26q22 -51 22 -100v-191q0 -86 -21 -189q-8 -44 -29 -90.5t-54 -100.5l1 1q-27 -38 -69 -76.5t-100 -76.5l14 -42q141 87 208 171q66 92 89 196q26 109 26 207v148q0 48 28 98zM23 764l-17 -33q45 -50 73.5 -86.5t43.5 -64.5q5 -14 34 -14q11 42 11 74
q0 22 -25 38l1 -1z" />
    <glyph glyph-name="k" unicode="k" horiz-adv-x="482" 
d="M161 824l-26 -15q22 -60 22 -148v-432l-15 6q-34 11 -54 31l-74 -16l-13 -36q39 -7 70.5 -15.5t56.5 -17.5h-1l23 -10q-26 -38 -60 -69q-59 -56 -170 -114l38 -22q36 16 71.5 37t71.5 47l29 23.5t27 23.5v-13q-5 -67 -29 -99q11 -29 24 -53t28 -44q29 0 36 43q6 38 6 152
v55l156 -94l175 52v35q-45 -2 -84.5 -3.5t-59.5 -1.5q-17 0 -28 0.5t-21 3.5t-21.5 9l-29.5 16l-73 40q16 17 27.5 30.5l21.5 24.5l20 22.5t18.5 20l20 20l25.5 24.5q40 35 85 61l-40 91h-28q-29 -67 -62 -103l-102 -132v407q4 67 33 91z" />
    <glyph glyph-name="l" unicode="l" horiz-adv-x="156" 
d="M66 835l-26 -15q22 -60 22 -148v-577q-5 -67 -29 -99q11 -29 24 -53t28 -44q29 0 36 43q6 38 6 152v577q4 68 33 92z" />
    <glyph glyph-name="m" unicode="m" horiz-adv-x="580" 
d="M509 486l-27 -42l-109 -18l-69 56l-27 -42l-169 -20l-25 53l-36 -13q6 -42 9.5 -70.5t3.5 -45.5v-272q-2 -37 -16 -66q19 -61 38 -95q30 0 34 34q6 21 6 87v331l159 20v-317v-21t-1 -20l-68 45l-28 -28q38 -33 66.5 -63t49.5 -56q5 -5 15 -5q17 0 20 24q3 20 4.5 46.5
t2.5 61.5v313l144 23v-316v-21t-1 -20l-68 45l-28 -28q38 -33 66.5 -63t49.5 -56q5 -5 15 -5q17 0 20 24q3 20 4.5 46.5t2.5 61.5v324q0 19 31 53z" />
    <glyph glyph-name="n" unicode="n" horiz-adv-x="419" 
d="M424 431l-70 56l-27 -42l-219 -25l-25 53l-36 -13q6 -42 9.5 -70.5t3.5 -45.5v-273q-2 -38 -16 -65q19 -61 38 -95q30 0 34 34q6 21 6 87v331l209 25v-317v-21t-1 -20l-68 45l-28 -28q38 -33 66.5 -63t49.5 -56q5 -5 15 -5q17 0 20 24q3 20 4.5 46.5t2.5 61.5v325l7 24
q2 3 7.5 9t17.5 18zM399 404v-1v1z" />
    <glyph glyph-name="o" unicode="o" horiz-adv-x="428" 
d="M40 518l-24 -9q14 -59 18 -88l24 -403q-1 -17 -4.5 -33.5t-9.5 -34.5l52 -71q26 0 26 25l1 56l265 10v25l-32 26l51 391q0 11 36 41l-63 56l-34 -40l-259 -26q-5 14 -12 30.5l-16 36.5zM275 23l-156 -3l-22 366l244 25l-47 -385q-9 -3 -19 -3z" />
    <glyph glyph-name="p" unicode="p" horiz-adv-x="403" 
d="M71 487l-38 -13q18 -96 18 -146v-515q-1 -36 -17 -66q10 -29 19 -52.5t20 -41.5q28 0 33 34q6 21 6 86v564l194 29q-21 -278 -48 -405l-113 69l-27 -27l97.5 -87t51.5 -52q13 -8 22 -8q21 0 33 83v-1q10 45 22.5 151.5t29.5 279.5q1 11 31 41l-67 61l-36 -48l-198 -30z
" />
    <glyph glyph-name="q" unicode="q" horiz-adv-x="403" 
d="M362 487l-34 -94l-197 30l-36 48l-67 -61q30 -30 31 -41q17 -173 29.5 -279.5t22.5 -151.5v1q12 -83 33 -83q9 0 22 8q14 17 51.5 52l97.5 87l-27 27l-114 -69q-13 63 -25 164t-23 241l195 -29v-564q0 -64 6 -86q2 -34 33 -34q11 18 20 41.5t19 52.5q-16 30 -17 66v515
q0 50 18 146z" />
    <glyph glyph-name="r" unicode="r" horiz-adv-x="391" 
d="M378 405l-1 -2q2 3 6.5 8.5t18.5 19.5l-70 56l-27 -42l-197 -25l-25 53l-36 -13q6 -42 9.5 -70.5t3.5 -45.5v-273q-2 -38 -16 -65q19 -61 38 -95q30 0 34 34q6 21 6 87v331l187 25v-71q0 -10 -1 -14l-69 45l-28 -28q38 -33 66.5 -63t49.5 -56q5 -5 16 -5q17 0 26 31v152z
" />
    <glyph glyph-name="s" unicode="s" horiz-adv-x="417" 
d="M67 562q11 -44 11 -81q0 -57 -14 -111q-5 -23 -13.5 -43.5t-19.5 -39.5l58 -52q22 36 41 40l186 22q-4 -33 -11.5 -71.5t-19 -77.5t-26.5 -74t-33 -60l-124 99l-34 -17l87 -103.5t53 -72.5v1q8 -17 21 -17t38 37q21 35 40 79.5t33.5 91.5t25 94t15.5 86q2 12 11.5 24.5
t28.5 26.5l-69 62l-37 -44l-190 -27l17 116l224 34v24l-40 31l-188 -30l-28 64z" />
    <glyph glyph-name="t" unicode="t" horiz-adv-x="214" 
d="M374 597q-15 -8 -44 -15t-71 -12l-102 -11v121q2 28 9.5 47t23.5 30l-84 70l-29 -15q10 -28 14.5 -61t4.5 -71v-128l-230 -23l70 -56q20 7 44 10.5t56 7.5l60 6v-418q-4 -58 -26 -87q8 -24 20 -46.5t29 -42.5q26 0 33 40q2 17 3.5 51t1.5 85v424l273 28v26z" />
    <glyph glyph-name="u" unicode="u" horiz-adv-x="419" 
d="M24 2l70 -56l27 42l219 24l25 -52l36 13q-6 42 -9.5 70.5t-3.5 45.5v272q2 37 16 66q-19 61 -38 95q-30 0 -34 -34q-4 -10 -5 -32t-1 -55v-332l-209 -24v317v20q0 10 1 20l68 -44l28 28q-37 33 -66 62.5t-50 56.5q-5 5 -15 5q-17 0 -20 -24q-3 -20 -4.5 -46.5t-2.5 -61.5
v-325l-8 -25q-2 -3 -7 -8.5t-17 -17.5zM49 30q0 -1 -1 -2z" />
    <glyph glyph-name="v" unicode="v" horiz-adv-x="484" 
d="M227 -39l32 21q3 48 37 113q26 49 58.5 98.5t72.5 100.5q75 95 221 211l-13 41q-75 -54 -135 -105t-106 -100q-38 -40 -78.5 -93.5t-85.5 -123.5l-79 340l-183 -9v-35q15 -3 34.5 -5.5t30.5 -4.5q17 -2 31 -5t28 -9l-1 1q5 -3 17.5 -33t26 -78.5t25 -110.5t14.5 -127z
" />
    <glyph glyph-name="w" unicode="w" horiz-adv-x="648" 
d="M434 -24l32 21q3 48 37 113q26 49 58.5 98.5t72.5 100.5q75 95 221 211l-13 41q-75 -54 -135 -105t-106 -100q-38 -40 -78 -93.5t-85 -122.5l-19 82t-11.5 48.5t-7 26l-4.5 15.5l1 -2l-39 169l-183 -9v-35q15 -3 34.5 -5.5t30.5 -4.5q17 -2 31 -5t28 -9q5 -5 18 -39
t27 -88l-56 -73.5t-58 -86.5l-79 340l-183 -9v-35q15 -3 34.5 -5.5t30.5 -4.5q17 -2 31 -5t28 -9l-1 1q5 -3 17.5 -33t26 -78.5t25 -110.5t14.5 -127l53 -87l32 21q3 48 37 113q14 27 30.5 55t36.5 57q6 -34 11 -70t7 -74z" />
    <glyph glyph-name="x" unicode="x" horiz-adv-x="528" 
d="M368 461h-35q-4 -71 -49 -163l1 1q-18 -37 -40 -67l-6 7l-30.5 30.5l-32.5 32.5q-33 36 -33 69h-108v-42q46 -14 80 -48h-1l95 -96l-10.5 -12l-10.5 -11q-4 -5 -8 -9t-8 -9h1q-64 -67 -151 -123q-42 -26 -91.5 -51t-108.5 -48l18 -32q45 11 93.5 29.5t101.5 46.5
q94 51 161 117q14 11 28.5 25.5t28.5 31.5l212 -214l202 14v43q-63 7 -110.5 19t-79.5 31q-32 16 -78 54.5t-109 99.5q21 29 42.5 65.5l44.5 79.5q13 25 42 42z" />
    <glyph glyph-name="y" unicode="y" horiz-adv-x="510" 
d="M203 -52l34 43l127 23v-256q0 -41 -24 -86l80 -64l22 26q-17 45 -17 85v308l155 34l-73 49q-26 -11 -39 -14l-43 -11q2 36 5 74.5t8 81.5q10 97 52 207v-1q35 87 106 167l-18 35q-95 -94 -140 -186q-41 -94 -58 -206q-8 -48 -11.5 -94t-4.5 -92l-124 -24v373
q0 100 -110 100q-35 0 -61 -0.5t-55 -5.5q19 -69 30 -148.5t17 -171.5h45l-1 261q0 2 5.5 3t19.5 1q45 0 45 -39l-1 -372q-3 -19 -37 -41z" />
    <glyph glyph-name="z" unicode="z" horiz-adv-x="689" 
d="M98 299q9 5 27.5 11.5t40.5 12.5l44 11.5l37 9.5l282 58l-76.5 -75.5l-70.5 -67.5l-119 -102.5t-117 -87.5h-8q-100 0 -158 -35l56 -54q36 32 102 32q11 0 39 -4t73 -12q53 -11 156.5 -48t264.5 -101l205 60v38q-125 -12 -187 -12q-32 0 -99 23l-309 92q-33 8 -55 12
q95 71 185 146t178 160q62 57 123 79l-55 86l-54 -55l-587 -116z" />
    <glyph glyph-name="braceleft" unicode="{" horiz-adv-x="236" 
d="M-13 251l110 49l-3 -326v1q-3 -19 -43 -56l77 -65l31 43l220 38l-70 65q-17 -12 -32 -17.5t-29 -6.5l-89 -16l1 561q1 78 17 142l7 -4l212 41l-84 55l-132 -28q-20 64 -35 64q-9 0 -17 -18.5t-14 -41.5t-9 -42.5t-3 -21.5l-4 -279l-48 -46t-63 -52v-39z" />
    <glyph glyph-name="bar" unicode="|" horiz-adv-x="130" 
d="M145 861l-94 72l-26 -15q22 -60 22 -148v-723q-5 -67 -29 -99q11 -29 24 -53t28 -44q29 0 36 43q6 38 6 152v723q4 68 33 92z" />
    <glyph glyph-name="braceright" unicode="}" horiz-adv-x="256" 
d="M269 412l-111 -50l4 326q1 19 43 56l-77 65l-32 -43l-219 -38l70 -65q17 12 32 17.5t29 6.5l89 16l-1 -561q-3 -80 -17 -142l-7 4l-212 -41l84 -55l132 28q20 -64 35 -64q9 0 17 18.5t14 41.5t9 42.5t3 21.5l4 279l47 45t64 53v39z" />
    <glyph glyph-name="asciitilde" unicode="~" horiz-adv-x="467" 
d="M474 751l-84 31q-12 -37 -38 -68l-48 -58q-63 70 -164 212l-25 -29l60 -111q-45 -48 -81 -76t-64 -40v-24l84 -31q12 38 37 68l49 58l35 -58.5t25 -39.5q14 -22 27 -25q6 1 19.5 3.5l28.5 5.5q34 9 34 24q0 16 -25 20l-7 7q42 44 76 69.5t61 37.5v24z" />
    <glyph glyph-name="quotesinglbase" unicode="&#x201a;" horiz-adv-x="193" 
d="M58 -104l99 117q20 26 20 47q0 27 -20 70h-28q-15 -42 -37.5 -92t-51.5 -107z" />
    <glyph glyph-name="florin" unicode="&#x192;" horiz-adv-x="874" 
d="M356 0q11 0 3 2l13 77h71l14 -75q-1 -2 2 -3t5 -1l254 1q69 0 100 23.5t30 70.5q3 20 2.5 43.5t-7 44.5t-21.5 36t-40 17q21 1 34 11.5t20.5 25.5t10 33t2 35.5t-3 31.5t-4.5 22q-8 14 -21.5 24.5t-28.5 16.5v41q0 2 -3 2.5t-5 0.5h-120l1 104h118q4 0 0 4l-1 78
q2 4 -5 4h-112v84h121q3 0 3 2v81q0 1 -3 2.5t-5 1.5h-246q-2 0 -3.5 -1t0.5 -2v-168h-58l1 167q1 1 -2 2.5t-8 1.5h-409q-2 0 -6 -2v-83q-3 -3 10 -3h81v-306h-80q-3 0 -3 -2v-439q-2 -3 0.5 -4t4.5 -1zM321 445l-78 -357h-59v306h78q3 0 5 2v357h78l-1 -307zM486 446h-11
v138h60v-217q0 -3 4 -3q51 0 79 -0.5t41 -0.5q14 0 18 -0.5t7 -0.5h3q25 0 32 -28q-1 -55 -30 -55h-160zM209 366q2 1 2.5 1.5t1.5 0.5h64q8 0 7 -3l-49 -159q3 -3 0 -3l-17 3q-6 0 -7.5 1.5t-0.5 2.5zM682 192q15 1 22.5 -2t11 -9t4 -16t1.5 -23q-2 -35 -8.5 -44.5
t-29.5 -9.5h-22v104h21zM431 164h-44l22 170z" />
    <glyph glyph-name="quotedblbase" unicode="&#x201e;" horiz-adv-x="239" 
d="M29 -113l99 117q20 26 20 47q0 27 -20 70h-28q-15 -42 -37.5 -92t-51.5 -107zM117 -114l99 117q20 26 20 47q0 27 -20 70h-28q-15 -42 -37.5 -92t-51.5 -107z" />
    <glyph glyph-name="ellipsis" unicode="&#x2026;" horiz-adv-x="370" 
d="M134 16q0 53 -12 67q-6 6 -16 6q-6 0 -14 -2.5t-16 -6.5t-14.5 -8.5t-9.5 -8.5l2 3q-6 -6 -6 -19q0 -8 0.5 -12t1.5 -10q3 -15 5.5 -23.5t5.5 -12t7.5 -4.5t11.5 -1q8 0 17.5 3t17.5 8t13.5 10.5t5.5 10.5zM353 18q0 53 -12 67q-6 6 -16 6q-6 0 -14 -2.5t-16 -6.5
t-14.5 -8.5t-9.5 -8.5l2 3q-6 -6 -6 -19q0 -8 0.5 -12t1.5 -10q3 -15 5.5 -23.5t5.5 -12t7.5 -4.5t11.5 -1q8 0 17.5 3t17.5 8t13.5 10.5t5.5 10.5zM247 19q0 53 -12 67q-6 6 -16 6q-6 0 -14 -2.5t-16 -6.5t-14.5 -8.5t-9.5 -8.5l2 3q-6 -6 -6 -19q0 -8 0.5 -12t1.5 -10
q3 -15 5.5 -23.5t5.5 -12t7.5 -4.5t11.5 -1q8 0 17.5 3t17.5 8t13.5 10.5t5.5 10.5z" />
    <glyph glyph-name="dagger" unicode="&#x2020;" horiz-adv-x="442" 
d="M398 616q-27 -11 -58.5 -18.5t-68.5 -12.5v78q5 59 33 80l-85 68l-28 -15q10 -28 14.5 -61t4.5 -71v-87l-203 -27l86 -58q23 6 49 11t57 10h-1l12 1v-608q-2 -29 -7.5 -50.5t-16.5 -37.5q18 -51 48 -87q25 0 32 40q2 17 3.5 50.5t1.5 84.5v615l181 25v25z" />
    <glyph glyph-name="daggerdbl" unicode="&#x2021;" horiz-adv-x="440" 
d="M395 441q-27 -11 -59 -18.5t-70 -12.5l-6 -1v112l181 25v25l-54 45q-27 -11 -58.5 -18.5t-68.5 -12.5v79q5 58 33 79l-85 68l-28 -15q10 -28 14.5 -61t4.5 -71v-87l-203 -27l86 -58q23 6 49 11t57 10h-1l12 1v-113l-195 -26l86 -58q23 6 49 11t57 10h-2h5v-412
q-2 -29 -7.5 -51t-16.5 -38q18 -51 48 -87q25 0 32 40q2 17 3.5 50.5t1.5 84.5v420l189 26v25z" />
    <glyph glyph-name="circumflex" unicode="&#x2c6;" horiz-adv-x="372" 
d="M33 684l84 -31q12 38 37 68l49 58l35 -58.5t25 -39.5q14 -22 27 -25q6 1 19.5 3.5l28.5 5.5q34 9 34 24q0 16 -25 20q-35 36 -86 99t-118 156l-25 -29l60 -111q-45 -48 -81 -76t-64 -40v-24z" />
    <glyph glyph-name="perthousand" unicode="&#x2030;" horiz-adv-x="732" 
d="M157 766q-29 -89 -58 -146.5t-53 -86.5q-8 -6 -11.5 -12.5t-3.5 -10.5v-13q3 -1 11.5 -2.5t12.5 -2.5l50.5 -6.5t55 -12.5t59 -24.5t62.5 -41.5l31 24q26 82 55 138t58 91zM407 370q-29 -89 -58 -146.5t-53 -86.5q-8 -6 -11.5 -12.5t-3.5 -10.5v-13q3 -1 11.5 -2.5
t12.5 -2.5l50.5 -6.5t55 -12.5t59 -24.5t62.5 -41.5l31 24q26 82 55 138t58 91zM544 665q-29 -89 -58 -146.5t-53 -86.5q-8 -6 -11.5 -12.5t-3.5 -10.5v-13q3 -1 11.5 -2.5t12.5 -2.5l50.5 -6.5t55 -12.5t59 -24.5t62.5 -41.5l31 24q26 82 55 138t58 91zM472 758
q-5 -38 -24 -93.5t-55 -128.5q-22 -43 -49 -103l-54 -123.5l-51.5 -125.5t-41.5 -110l-27 -84l108 -7q-19 37 -19 62q0 59 51 173q15 39 36 89l43 99l42.5 91.5t34.5 66.5q56 99 145 188l-14 33zM163 532q-17 7 -34 15l57 146q28 -18 55 -29t49 -19q11 -5 21 -7.5t16 -7.5
l-54 -154q-31 20 -59 33zM550 431q-17 7 -34 15l57 146q28 -18 55 -29t49 -19q11 -5 21 -7.5t16 -7.5l-54 -154q-31 20 -59 33zM413 136q-17 7 -34 15l57 146q28 -18 55 -29t49 -19q11 -5 21 -7.5t16 -7.5l-54 -154q-31 20 -59 33z" />
    <glyph glyph-name="Scaron" unicode="&#x160;" horiz-adv-x="474" 
d="M88 829q11 -44 11 -81q0 -11 -1.5 -36t-4.5 -57t-6 -68t-6.5 -67.5t-6.5 -55.5t-5 -33q-5 -23 -13.5 -43.5t-19.5 -39.5l58 -52q22 36 41 40l292 35q-5 -36 -16 -86t-26.5 -102t-34 -97.5t-37.5 -72.5l-209 132l-33 -16q37 -43 70.5 -72l63.5 -54l57 -48.5t33 -34.5v1
q8 -17 21 -17t38 37q14 23 29 56t29 71.5t27.5 80t24 81t18 75t10.5 62.5q2 12 11.5 24.5t28.5 26.5l-69 62l-37 -44l-297 -42l35 323l329 48v24l-40 31l-294 -45l-28 65zM469 975l-84 31q-12 -37 -38 -68l-49 -59l-34.5 59.5t-24.5 39.5q-12 21 -27 24l-20 -3.5t-29 -5.5
q-33 -9 -33 -23q0 -15 24 -21q35 -36 86.5 -98.5t118.5 -155.5l25 29l-60 111q44 48 80 75.5t65 40.5v24z" />
    <glyph glyph-name="guilsinglleft" unicode="&#x2039;" horiz-adv-x="339" 
d="M294 465h-24q-13 -29 -40.5 -65t-75.5 -80l-111 60l-29 -25q93 -67 155.5 -118.5t98.5 -86.5q6 -24 21 -24q14 0 23 33q3 15 5.5 29l3.5 20q-3 15 -24 27q-15 10 -39.5 25l-58.5 35l58 48q31 26 68 38z" />
    <glyph glyph-name="OE" unicode="&#x152;" horiz-adv-x="867" 
d="M640 819h-26q-21 -35 -98 -74q-20 -12 -62.5 -28t-98 -34l-118.5 -37l-125 -36v38l-4 29q-5 17 -14.5 40.5t-23.5 54.5l-38 -12q13 -54 18 -90v2l8 -613q-2 -35 -13 -69l51 -71q8 0 16.5 5.5t10.5 16.5v58l293 21q3 -4 6.5 -7t7.5 -6q46 -35 162 -35q123 0 279 27
q-5 22 -10.5 49.5t-10.5 56.5l-10 57.5t-9 54.5h-39v-159q0 -7 -44 -13q-46 -5 -84.5 -8t-71.5 -3q-87 0 -118 21q-16 9 -16 30v310l360 48v25l-74 49q-25 -14 -65 -26.5t-96 -20.5l-125 -16v206l128 43.5l137 48.5zM397 642v-196l-201 -25l83 -61q20 6 49.5 13t68.5 13
v-300q-11 -4 -20 -5.5t-18 -2.5l-237 -18l-9 505l63 16.5l74.5 19.5l76.5 20.5t70 20.5z" />
    <glyph glyph-name="quoteleft" unicode="&#x2018;" horiz-adv-x="193" 
d="M160 664l18 35q-29 57 -51.5 107t-37.5 92h-28q-11 -21 -15.5 -39t-4.5 -31q0 -21 19 -47z" />
    <glyph glyph-name="quoteright" unicode="&#x2019;" horiz-adv-x="193" 
d="M58 664l99 117q20 26 20 47q0 27 -20 70h-28q-15 -42 -37.5 -92t-51.5 -107z" />
    <glyph glyph-name="quotedblleft" unicode="&#x201c;" horiz-adv-x="253" 
d="M248 664l18 35q-29 57 -51.5 107t-37.5 92h-28q-11 -21 -15.5 -39t-4.5 -31q0 -21 19 -47zM160 663l18 35q-29 57 -51.5 107t-37.5 92h-28q-11 -21 -15.5 -39t-4.5 -31q0 -21 19 -47z" />
    <glyph glyph-name="quotedblright" unicode="&#x201d;" horiz-adv-x="253" 
d="M58 664l99 117q20 26 20 47q0 27 -20 70h-28q-15 -42 -37.5 -92t-51.5 -107zM146 663l99 117q20 26 20 47q0 27 -20 70h-28q-15 -42 -37.5 -92t-51.5 -107z" />
    <glyph glyph-name="bullet" unicode="&#x2022;" horiz-adv-x="280" 
d="M260 359q0 156 -28 184q-4 4 -11.5 7t-15.5 3q-15 0 -37 -7t-43 -17t-37.5 -21.5t-22.5 -20.5l2 3q-10 -10 -10 -35q0 -14 2 -28.5t4 -33.5q7 -37 12.5 -57.5t12 -30.5t15 -12t22.5 -2q19 0 43 6.5t44 17t34 22t14 22.5z" />
    <glyph glyph-name="endash" unicode="&#x2013;" horiz-adv-x="542" 
d="M507 349q-31 -6 -62.5 -11t-59.5 -5q-21 0 -43 3l-347 -1l76 -69q11 2 17 2h11h25h23q13 0 27 1h-1l374 2l11 22z" />
    <glyph glyph-name="emdash" unicode="&#x2014;" horiz-adv-x="714" 
d="M678 348q-31 -6 -62.5 -11t-59.5 -5q-21 0 -43 3h-518l76 -69q11 2 17 2h11h25h23q13 0 27 1h-1l545 1l11 22z" />
    <glyph glyph-name="tilde" unicode="&#x2dc;" horiz-adv-x="467" 
d="M435 756l-68 25q-5 -15 -12 -28t-17 -24l-32 -39q-23 26 -52.5 64.5l-67.5 92.5l-23 -28l44 -82q-32 -34 -58.5 -54t-47.5 -29v-23l69 -25q9 33 27 52l31 38l24 -39.5t18 -27.5q10 -15 24 -19q5 1 15 2.5t21 3.5q28 9 28 21q0 10 -5 13.5t-16 5.5q0 1 -1 1q29 31 54 49
t45 27v23z" />
    <glyph glyph-name="trademark" unicode="&#x2122;" horiz-adv-x="787" 
d="M648 834h-24q-12 -15 -55 -32q-28 -11 -60 -20.5t-71 -18.5l-7 17q18 14 52 30l-76 58l-24 -29l-123 -10l-42 35l-30 -17q3 -11 6 -24l-90 -7q0 7 -1 17t-4 29h-41q-3 -77 -44 -121q3 -10 5 -16t4.5 -11l5 -10.5t7.5 -15.5h6q4 0 7 1v-25q14 23 22 38l72 -48q11 2 26 5.5
t32 6.5v-242q-1 -35 -18 -56q13 -36 38 -68q17 0 23.5 7t11.5 23l24 -24q90 80 131 184q17 47 26 99.5t10 124.5q11 2 20.5 4t20.5 4q1 -6 1 -11v-9l-12 -259q0 -18 -47 -36l64 -62l40 69l12 291q0 4 16 31h-1q1 1 4 1q2 -3 4 -7.5t4 -8.5l101 -361l119 2v41q-50 13 -71 39
q-11 15 -23 47.5t-26 82.5l-45 156q-4 13 -5 27q15 4 35.5 7.5l47.5 8.5zM261 424v249l104 14v29l-42 36q-16 -7 -31 -12t-31 -7v23q0 5 0.5 9t1.5 9l98 8l-22 -41l33 -22q3 3 6.5 7t8.5 9q0 -89 -9.5 -146.5t-28.5 -101.5q-28 -73 -90 -133q1 12 1.5 29.5t0.5 40.5zM98 757
v3l103 8v-12v-32l-126 -16q10 18 14.5 28.5z" />
    <glyph glyph-name="scaron" unicode="&#x161;" horiz-adv-x="417" 
d="M97 562q11 -44 11 -81q0 -57 -14 -111q-5 -23 -13.5 -43.5t-19.5 -39.5l58 -52q22 36 41 40l186 22q-4 -33 -11.5 -71.5t-19 -77.5t-26.5 -74t-33 -60l-124 99l-34 -17l87 -103.5t53 -72.5v1q8 -17 21 -17t38 37q21 35 40 79.5t33.5 91.5t25 94t15.5 86q2 12 11.5 24.5
t28.5 26.5l-69 62l-37 -44l-190 -27l17 116l224 34v24l-40 31l-188 -30l-28 64zM415 711l-84 31q-12 -37 -38 -68l-49 -59l-34.5 59.5t-24.5 39.5q-12 21 -27 24l-20 -3.5t-29 -5.5q-33 -9 -33 -23q0 -15 24 -21q35 -36 86.5 -98.5t118.5 -155.5l25 29l-60 111
q44 48 80 75.5t65 40.5v24z" />
    <glyph glyph-name="guilsinglright" unicode="&#x203a;" horiz-adv-x="339" 
d="M83 465l-31 -84q37 -12 68 -38l58 -49l-58.5 -34.5t-39.5 -24.5q-22 -14 -25 -27l3.5 -20t5.5 -29q9 -33 24 -33t20 24q36 35 99 86.5t156 118.5l-29 25l-111 -60q-48 44 -76 80t-40 65h-24z" />
    <glyph glyph-name="oe" unicode="&#x153;" horiz-adv-x="603" 
d="M246 511q1 -6 2 -18.5t2 -17.5q0 -5 0.5 -8.5t0.5 -7.5l-164 -16q-5 15 -14 34.5l-20 45.5l-37 -14q14 -59 18 -88l24 -403q-1 -17 -4.5 -33.5t-9.5 -34.5l52 -71q26 0 26 25l1 56l265 10v25l-1 1q26 -3 54.5 -5t54.5 -2q37 0 67.5 7.5t41.5 22.5q-14 10 -23 19.5
t-14.5 22t-9.5 31.5t-7 49h-40l-1 -62q0 -25 -19 -33q-57 0 -90 5t-47 13q-14 6 -21 23.5t-11 38.5t-4.5 41t-0.5 31v61q30 -22 56.5 -34l48.5 -22l26 -12t13 -7q12 -8 20 -8q17 0 31 34q6 9 16.5 35t22.5 59.5t23.5 70.5t19.5 67q4 14 32 40l-64 53l-31 -39l-226 -32
l-21 60zM275 23l-156 -3l-22 366l159 16v-1v-205q0 -14 0.5 -36.5t4.5 -46.5t12 -46t22 -36l-1 -5q-9 -3 -19 -3zM461 256l-139 44l-5 -6v115l207 28q-6 -23 -14 -49.5t-17 -51.5t-17.5 -46t-14.5 -34z" />
    <glyph glyph-name="Ydieresis" unicode="&#x178;" horiz-adv-x="443" 
d="M15 892l-17 -34l22.5 -34l25.5 -37l40 -59l39 -57.5t31.5 -50.5t19.5 -37v1q4 -13 25 -14q10 -28 14.5 -61t4.5 -71v-367q-2 -30 -8 -51.5t-17 -35.5q18 -51 49 -88q24 0 32 38q2 17 3.5 51t1.5 86v367q4 55 34 77l-27 21l10.5 10.5t11.5 12.5v-1l45 45.5l50.5 53.5
l50 57t43.5 57q11 17 24 31.5t28 26.5l-36 90h-33q-19 -84 -67 -164q-12 -20 -39.5 -49l-56.5 -61l-38 -40.5l-32 -35.5l-19 16l-20 -11q15 39 15 73q0 7 -10 22.5t-23 32.5l-25 31.5t-16 18.5v-1zM241 892q0 53 -12 67q-6 6 -16 6q-6 0 -14 -2.5t-16 -6.5t-14.5 -8.5
t-9.5 -8.5l2 3q-6 -6 -6 -19q0 -8 0.5 -12t1.5 -10q3 -15 5.5 -23.5t5.5 -12t7.5 -4.5t11.5 -1q8 0 17.5 3t17.5 8t13.5 10.5t5.5 10.5zM396 895q0 53 -12 67q-6 6 -16 6q-6 0 -14 -2.5t-16 -6.5t-14.5 -8.5t-9.5 -8.5l2 3q-6 -6 -6 -19q0 -8 0.5 -12t1.5 -10
q3 -15 5.5 -23.5t5.5 -12t7.5 -4.5t11.5 -1q8 0 17.5 3t17.5 8t13.5 10.5t5.5 10.5z" />
    <glyph glyph-name="exclamdown" unicode="&#xa1;" horiz-adv-x="156" 
d="M125 -123l26 15q-22 60 -22 148v266q5 67 29 99q-11 29 -24 53t-28 44q-29 0 -36 -44q-6 -39 -6 -151v-267q-5 -68 -33 -91zM60 607q0 -57 12 -67q6 -6 16 -6q6 0 14 2.5t15.5 6.5t14 8.5t9.5 8.5l-1 -3q6 6 6 19q0 6 -0.5 10.5t-1.5 10.5q-3 15 -5.5 23.5t-5.5 12.5
t-7.5 5t-11.5 1q-8 0 -17.5 -3t-17.5 -8t-13.5 -10.5t-5.5 -10.5z" />
    <glyph glyph-name="cent" unicode="&#xa2;" horiz-adv-x="432" 
d="M216 711l-26 -15q18 -56 21 -127l-54 2q-34 0 -116 14l-12 -37l60 -29l-34 -337l-39 -32l54 -79q34 39 53 40h-1l83 4q-4 -58 -28 -89q11 -29 24 -53t28 -44q29 0 36 43q6 37 6 147l73 4q74 14 74 34q0 16 -91 49q-16 -19 -56 -25l5 326l60 -1q33 0 55 1t32 5q34 2 34 33
q-18 11 -41.5 20t-52.5 19q-30 -16 -66 -17h-19q7 52 32 72zM145 508l66 -1l-5 -330l-94 -4z" />
    <glyph glyph-name="sterling" unicode="&#xa3;" horiz-adv-x="491" 
d="M302 507l-91 -45q-1 15 -0.5 30t0.5 32q0 105 25 165l135 -87l13 35q-113 101 -150 155q-5 5 -15 5q-15 0 -35 -44q-18 -45 -26.5 -102t-8.5 -127v-48t2 -44l-133 -64l43 -36l94 40l6 -40l-102 -49l21 -41q32 13 47.5 20t19.5 9l5 2.5t9 2.5h-1q-11 -2 -5 0t17 5
q5 -19 11.5 -39t17.5 -41q-185 -194 -273 -215l79 -85l53 44l469 69l-73 58q-31 -10 -52 -14l-304 -48l125 147l23.5 -35l26.5 -37l38 30q-66 99 -85 180l-1 4l72 26t45 15t25.5 6.5t13.5 1.5h6h5t10 1.5t19.5 3.5t33.5 7l-112 58q-27 -17 -59 -32.5t-68 -30.5q-2 10 -3 20
l-2 21l145 60z" />
    <glyph glyph-name="currency" unicode="&#x20ac;" horiz-adv-x="621" 
d="M500 374l-318 -49v42l366 50v25l-53 44l-313 -48l1 46q1 39 5 73.5t11 65.5l12 -10q28 9 60 16t68 12l288 45l-86 57q-27 -8 -52 -12t-53 -7l-233 -35q-20 65 -35 65q-9 0 -17 -18.5t-14 -41.5t-9 -42.5t-3 -21.5l-4 -201l-125 -19l83 -57l40 5v-42l-118 -18l83 -57l33 4
l-2 -190v1q-3 -21 -43 -56l77 -65l31 43l471 81l-70 65q-17 -12 -32 -17.5t-29 -6.5l-340 -59l1 213l372 51v25z" />
    <glyph glyph-name="yen" unicode="&#xa5;" horiz-adv-x="443" 
d="M-15 787l-17 -34l22.5 -34l25.5 -37l40 -59l39 -57.5t31.5 -50.5t19.5 -37v1q4 -13 25 -14q10 -28 14.5 -61t4.5 -71v-34l-198 -27l85 -58q20 5 39 8.5l42 7.5l10 2l10 2l12 1v-49l-193 -26l85 -58q20 5 39 8.5l42 7.5l10 2l10 2l7 1v-30q-2 -30 -8 -52t-17 -36
q18 -51 49 -88q24 0 32 38q2 17 3.5 51t1.5 86v38l191 26v25l-54 45q-32 -11 -66 -20.5t-71 -13.5v51l186 25v25l-54 45q-32 -11 -64.5 -20t-67.5 -14v28q4 56 34 78l-27 21l10.5 10.5t11.5 12.5v-1l45 45.5l50.5 53.5l50 57t43.5 57q11 17 24 31.5t28 26.5l-36 90h-33
q-19 -84 -67 -164q-12 -20 -39.5 -49l-56.5 -61l-38 -40.5l-32 -35.5l-19 16l-20 -11q15 39 15 73q0 7 -10 22.5t-23 32.5l-25 31.5t-16 18.5v-1z" />
    <glyph glyph-name="brokenbar" unicode="&#xa6;" horiz-adv-x="130" 
d="M145 855l-94 72l-26 -15q22 -60 22 -148v-114q-5 -67 -29 -99q11 -29 24 -53t28 -44q29 0 36 43q6 37 6 152v114q4 68 33 92zM149 268l-94 72l-26 -15q22 -60 22 -148v-115q-5 -66 -29 -98q11 -29 24 -53t28 -44q29 0 36 43q6 38 6 152v114q4 68 33 92z" />
    <glyph glyph-name="section" unicode="&#xa7;" horiz-adv-x="417" 
d="M79 841q11 -44 11 -81q0 -57 -14 -111q-5 -23 -13.5 -43.5t-19.5 -39.5l58 -52q23 37 42 40h-1l185 21q-3 -23 -7.5 -51.5t-12.5 -58.5l-169 -26l-28 64l-43 -11q11 -44 11 -81q0 -57 -14 -111q-5 -23 -13.5 -43.5t-19.5 -39.5l58 -52q22 36 41 40l186 22
q-4 -33 -11.5 -71.5t-19 -77.5t-26.5 -74t-33 -60l-124 99l-34 -17l87 -103.5t53 -72.5v1q8 -17 21 -17t38 37q21 35 40 79.5t33.5 91.5t25 94t15.5 86q2 12 11.5 24.5t28.5 26.5l-69 62l-25 -30q29 63 43.5 131.5t22.5 134.5q2 12 11.5 24.5t28.5 26.5l-69 62l-37 -44
l-190 -27l17 116l224 34v24l-40 31l-188 -30l-28 64zM231 278l2 1l-108 -15l17 116l148 22l-14.5 -42.5t-15.5 -39t-15.5 -29.5t-13.5 -13z" />
    <glyph glyph-name="dieresis" unicode="&#xa8;" horiz-adv-x="370" 
d="M179 703q0 53 -12 67q-6 6 -16 6q-6 0 -14 -2.5t-16 -6.5t-14.5 -8.5t-9.5 -8.5l2 3q-6 -6 -6 -19q0 -8 0.5 -12t1.5 -10q3 -15 5.5 -23.5t5.5 -12t7.5 -4.5t11.5 -1q8 0 17.5 3t17.5 8t13.5 10.5t5.5 10.5zM334 706q0 53 -12 67q-6 6 -16 6q-6 0 -14 -2.5t-16 -6.5
t-14.5 -8.5t-9.5 -8.5l2 3q-6 -6 -6 -19q0 -8 0.5 -12t1.5 -10q3 -15 5.5 -23.5t5.5 -12t7.5 -4.5t11.5 -1q8 0 17.5 3t17.5 8t13.5 10.5t5.5 10.5z" />
    <glyph glyph-name="copyright" unicode="&#xa9;" horiz-adv-x="708" 
d="M64 768l-25 -8q13 -54 18 -90v2l8 -613q-2 -35 -13 -69l51 -71q8 0 16.5 5.5t10.5 16.5v58l442 27q26 -68 43 -68q19 0 28 66q4 29 5.5 52.5t1.5 43.5l27 547q1 10 10.5 22.5t31.5 29.5l-74 61l-32 -42l-503 -45q-5 14 -12 30.5l-15 36.5zM582 81l-23 19q-38 -17 -58 -18
l-372 -22l-10 572l495 45l-25 -556q0 -23 -7 -40zM162 573l60 -29l-34 -337l-39 -32l54 -79q34 39 53 40h-1l222 12q74 14 74 34q0 16 -91 49q-18 -21 -70 -26l-145 -6l33 335l191 -3q33 0 55 1t32 5q34 2 34 33q-18 11 -41.5 20t-52.5 19q-30 -16 -66 -17l-140 4
q-34 0 -116 14z" />
    <glyph glyph-name="ordfeminine" unicode="&#xaa;" horiz-adv-x="1030" 
d="M217 784l-42 -11q24 -95 24 -132v-508q-1 -19 -5.5 -36.5t-15.5 -34.5q10 -32 21 -58t22 -46q30 0 35 35q8 24 8 97v566l505 41v-603q0 -27 -8 -53l-129 72l-26 -29q54 -41 95 -77.5t70 -68.5q12 -7 21 -7q16 0 24 22q9 25 13 56.5t5 69.5v605q0 20 34 57l-75 58l-28 -41
l-513 -41z" />
    <glyph glyph-name="guillemotleft" unicode="&#xab;" horiz-adv-x="466" 
d="M427 460h-24q-13 -29 -41 -64.5t-76 -80.5l-39 21l10 8q30 25 68 37l-31 84h-24q-19 -44 -72 -103l-22 13l-27 -24q9 -10 13 -13t6 -5q-2 -2 -4 -3.5t-4 -3.5l1 1q-2 -2 -4 -3.5t-4 -3.5l-110 60l-29 -25q93 -67 155.5 -118.5t98.5 -86.5q6 -24 21 -24q14 0 23 33
q3 15 5.5 29l3.5 20q-4 11 -13 19l52.5 -44.5t40.5 -37.5q6 -24 21 -24q14 0 23 33q3 15 5.5 29l3.5 20q-3 15 -24 27q-15 10 -39.5 25l-58.5 35l58 48q31 26 68 38zM297 235l-99 60l11 9q28 -20 52 -39l45 -36z" />
    <glyph glyph-name="logicalnot" unicode="&#xac;" horiz-adv-x="808" 
d="M173 792q14 -68 15 -112v-94q0 -226 -51 -352q-56 -158 -199 -298l35 -25q147 123 211 286v-1q44 98 61 238l7 1q37 -57 83 -118t103 -129v1l108 -126.5t78 -82.5l246 31v40q-154 1 -222 31q-50 19 -139 117q-102 113 -191 242l298 34v25l-28 22l24 187q0 11 35 40
l-63 59l-35 -42l-305 -41l-32 80zM513 523l-263 -31q3 43 3 94v82l294 39l-21 -181q-9 -3 -13 -3z" />
    <glyph glyph-name="registered" unicode="&#xae;" horiz-adv-x="714" 
d="M617 -50l2 9q1 0 1.5 -0.5t2.5 -0.5q19 0 28 66q4 29 5.5 52.5t1.5 43.5l27 547q1 10 10.5 22.5t31.5 29.5l-74 61l-32 -42l-503 -45q-5 14 -13.5 33.5l-19.5 45.5l-38 -12q13 -54 18 -90v2l8 -613q-2 -35 -13 -69l51 -71q8 0 16.5 5.5t10.5 16.5v58l76 4q4 -6 6 -10
q2 -3 3.5 -6t5.5 -7q23 0 31 25l234 15l14 -13q5 -5 9.5 -10t9.5 -10l30 -16zM590 80l-23 19q-14 -6 -25.5 -10t-21.5 -6q-52 57 -80 109q-9 16 -15 30t-10.5 29t-7 33.5t-4.5 44.5q-1 7 -1.5 13.5t-0.5 12.5l40.5 -42l25.5 -28l3 -3q13 -9 24 -9q10 0 19.5 28.5t17.5 75
t15 106t12 120.5q1 5 7.5 14.5t22.5 25.5l-32 28l66 6l-25 -556q0 -22 -7 -41zM270 113l-14 372l50 -42t47 -44q-2 -14 -2.5 -29.5t-1.5 -32.5q0 -7 -0.5 -13t-0.5 -12q0 -41 7.5 -71.5t26.5 -68.5q22 -46 63 -94l-176 -11q0 10 0.5 21t0.5 24v1zM187 545l18 -391
q-2 -18 -6.5 -35.5t-14.5 -34.5q2 -8 3 -12.5t3 -8.5l-53 -3l-10 572l47 5q7 -29 10 -52t3 -40zM467 386l-60 42q7 42 23 93l-33 13q-11 -23 -18.5 -41.5t-12.5 -35.5l-81 58l-29 -29l-3 77l237 36l-6.5 -95.5t-4.5 -57t-5 -34t-7 -26.5zM230 642l262 24l-3 -5l-249 -38z
M577 26h3l3 -6z" />
    <glyph glyph-name="macron" unicode="&#xaf;" horiz-adv-x="449" 
d="M404 786q-31 -6 -62.5 -11t-59.5 -5q-21 0 -43 3h-231l76 -69q11 2 17 2h11h25h23q13 0 27 1h-1l258 1l11 22z" />
    <glyph glyph-name="degree" unicode="&#xb0;" horiz-adv-x="372" 
d="M371 697q0 16 -25 20l-143 138q-51 -56 -91 -88.5t-66 -44.5l2 1q-17 -5 -23.5 -13.5t1.5 -15.5l15 -10l33.5 -21t35 -27t34 -37t31.5 -51l33 7q46 51 80.5 80.5t60.5 40.5h-1q11 5 17 8.5t6 12.5zM137 680q-5 6 -9.5 10t-10.5 13l84 81q14 -21 29 -37t29 -29h-1
q6 -7 11 -11.5t9 -9.5l-83 -88q-14 23 -29.5 40zM109 715q4 0 4 -6h-1z" />
    <glyph glyph-name="plusminus" unicode="&#xb1;" horiz-adv-x="459" 
d="M423 491q-15 -8 -44 -15t-71 -12l-33 -4l-1 56q2 28 9.5 47t23.5 30l-84 70l-29 -15q10 -28 14.5 -61t4.5 -71l1 -64l-206 -21l70 -56q20 7 44 10.5t56 7.5l36 4v-34q-5 -59 -26 -88q8 -24 20 -46.5t29 -42.5q26 0 33 40q2 17 3.5 51t1.5 85v41l204 22v26zM434 205
q-15 -8 -44 -15t-71 -12l-300 -33l70 -56q20 7 44 10.5t56 7.5l301 32v26z" />
    <glyph glyph-name="twosuperior" unicode="&#xb2;" horiz-adv-x="733" 
d="M191 -62h26q19 25 96 55q100 40 243 71l34 -83l39 13q-15 67 -15 92v70q0 213 66 372q29 75 71 135t97 110l-33 33q-135 -118 -205 -299q-61 -164 -61 -351v-48q-28 -5 -54.5 -8.5t-52.5 -8.5q-2 17 -3 30.5t-1 25.5l20 449q0 42 63 71l-69 69l-55 -92l-20 -504
q0 -14 -20 -47l21 -15q-14 -3 -28 -7l-30 -9q-19 20 -23 36v-1l-175 625l-171 -4v-39q82 -21 119 -69q20 -29 42 -86.5t47 -146.5l76 -270q9 -33 9 -67q-27 -8 -58.5 -14l-65.5 -12z" />
    <glyph glyph-name="threesuperior" unicode="&#xb3;" horiz-adv-x="691" 
d="M168 664l-84 70l-29 -15q10 -28 14.5 -61t4.5 -71l1 -524q-5 -59 -26 -88q18 -49 49 -87q26 0 33 40q2 17 3.5 50.5t1.5 84.5v508l18 -13q10 4 23 8.5t30 9.5h-2l170 20q1 -5 1 -9v-8q0 -71 -27 -207q-16 -72 -34 -127t-37 -94q-26 -53 -58.5 -101t-73.5 -94l17 -33
q31 25 62.5 58.5t63.5 77.5q52 77 80 154q20 49 36 119t30 167v-1q9 50 24 79l-24 27l175 24q-20 -206 -49 -353.5t-70 -242.5l-93 109l-26 -30q32 -48 58 -92.5t48 -86.5q13 -13 22 -13q25 0 68 122q32 103 58 241.5t49 317.5v-1q8 44 53 67l-87 62l-27 -37l-473 -62
q8 22 27 35z" />
    <glyph glyph-name="acute" unicode="&#xb4;" horiz-adv-x="444" 
d="M201 582l99 117q20 26 20 47q0 27 -20 70h-28q-15 -42 -37.5 -92t-51.5 -107z" />
    <glyph glyph-name="mu" unicode="&#xb5;" horiz-adv-x="419" 
d="M55 -177q0 -39 -52 -73l88 -40q14 20 72 80l160 162l-36 18l-171 -137v151l224 28l25 -52l36 13q-6 42 -9.5 70.5t-3.5 45.5v272q2 37 16 66q-19 61 -38 95q-30 0 -34 -34q-4 -10 -5 -32t-1 -55v-332l-209 -24v317v20q0 10 1 20l68 -44l28 28q-37 33 -66 62.5t-50 56.5
q-5 5 -15 5q-17 0 -20 -24q-3 -20 -4.5 -46.5t-2.5 -61.5z" />
    <glyph glyph-name="paragraph" unicode="&#xb6;" horiz-adv-x="475" 
d="M94 505q-16 -42 -22.5 -83.5t-6.5 -81.5q0 -60 13.5 -114t36 -94.5t51.5 -64.5t60 -24q14 0 27 5q31 5 55 25.5t44 46.5v-26q0 -35 1 -74t3 -73l3.5 -59t3.5 -33v1q2 -12 6 -18.5l8 -13.5q-2 1 3.5 -8.5t9.5 -14.5q10 -5 13.5 -6t5.5 -2v1q6 -3 9.5 -4.5t18.5 -6.5l14 23
q-6 5 -11.5 11t-7.5 8l-4 4v-1q-5 6 -9 35t-6 75t-3 105.5t-1 126.5q0 64 1 132l2 134t2.5 126.5t2.5 110.5q1 35 2 64t1 49q2 12 4.5 40.5t2.5 58.5q0 23 -3 42.5t-10 28.5v-1q-7 10 -9.5 11.5t-12.5 1.5q-1 0 -4.5 -0.5t-4.5 -0.5l-10 -8.5t-7.5 -9.5t-8 -16l-12.5 -29
q17 -2 25 -25.5t8 -52.5q0 -11 -0.5 -20.5t-1.5 -19.5l-4 -56q-5 -1 -10 -2.5t-12.5 -4t-19.5 -7t-30 -10.5h1q-80 -23 -128 -72.5t-79 -128.5zM148 523l-1 -1q12 31 34 56t48.5 43.5t55.5 30.5t55 18q3 2 12.5 5.5t19.5 6.5q-3 -81 -5 -125.5t-4 -70.5q-13 47 -21 72.5
t-14 36t-11.5 9.5t-12.5 -5h1q-8 -5 -12 -18.5l-10 -33.5q-6 -23 -15.5 -53t-21.5 -57.5t-28 -49t-36 -27.5h-3q-9 0 -16 10t-12 26.5t-7.5 38.5t-2.5 45v15zM415 -180l10 -24l-16 -2zM379 -179q-1 1 -1 2l-1 1l1 -1q0 -1 1 -2z" />
    <glyph glyph-name="periodcentered" unicode="&#xb7;" horiz-adv-x="217" 
d="M208 255q0 62 -6.5 99t-17.5 48q-6 3 -12 6.5t-11 3.5q-13 0 -31 -6t-35.5 -15t-31.5 -19.5t-19 -19.5q-3 -8 -3 -28q0 -19 5 -41t13 -41t18 -31.5t20 -12.5q16 0 35.5 5.5t36 14t28 18.5t11.5 19z" />
    <glyph glyph-name="periodcentered" unicode="&#x2219;" horiz-adv-x="217" 
d="M208 255q0 62 -6.5 99t-17.5 48q-6 3 -12 6.5t-11 3.5q-13 0 -31 -6t-35.5 -15t-31.5 -19.5t-19 -19.5q-3 -8 -3 -28q0 -19 5 -41t13 -41t18 -31.5t20 -12.5q16 0 35.5 5.5t36 14t28 18.5t11.5 19z" />
    <glyph glyph-name="cedilla" unicode="&#xb8;" horiz-adv-x="153" 
d="M18 -116l99 117q20 26 20 47q0 27 -20 70h-28q-15 -42 -37.5 -92t-51.5 -107z" />
    <glyph glyph-name="onesuperior" unicode="&#xb9;" horiz-adv-x="682" 
d="M583 -70l33 17q-5 31 -7 54.5t-3 43.5v180q0 101 9.5 179.5t27.5 135.5q43 145 146 269l-36 25q-109 -112 -157 -259q-51 -141 -51 -350v-169l-329 -43q5 69 7.5 147t2.5 169q0 145 -30 241h1q-26 98 -85 173q-57 67 -153 97q14 -63 22 -139.5t12 -167.5h37l14 187
q14 -13 32 -37q35 -49 64 -137q12 -38 18.5 -92t6.5 -125q0 -280 -12 -308q-4 -29 -44 -46l72 -65l39 46l335 44z" />
    <glyph glyph-name="ordmasculine" unicode="&#xba;" horiz-adv-x="347" 
d="M61 769l-24 -9q13 -58 18 -89l24 -185q-1 -32 -14 -68l59 -62l11 25q1 0 4.5 -1.5t3.5 -6.5l1 55l184 6v26l-33 26l18 174q0 10 36 40l-63 56l-35 -40l-143 -21q-5 14 -12 30l-16 36zM297 343q-8 -2 -19.5 -3.5t-17.5 -3.5h1q-14 -3 -25.5 -5t-25.5 -2q-15 0 -39 3
l-147 -1l76 -69q6 1 9 1t7 2q1 0 1.5 0.5t1.5 0.5h218l11 22zM214 488h1l-76 1l-20 149l129 19l-14 -166q-9 -3 -20 -3z" />
    <glyph glyph-name="guillemotright" unicode="&#xbb;" horiz-adv-x="466" 
d="M290 304l-54.5 -42l-47.5 -38q3 3 6.5 5.5t8.5 5.5q15 10 39.5 25l58.5 35zM73 460h24q12 -29 40 -64.5t76 -80.5l39 21l-9 8q-30 25 -68 37l31 84h24q10 -23 27.5 -48.5t44.5 -54.5l22 13l29 -25l-12 -9.5t-10 -7.5q2 -2 4.5 -3.5t4.5 -3.5l-1 1l7 -7l111 60l29 -25
q-93 -67 -156 -118.5t-99 -86.5q-5 -24 -20 -24t-24 33q-3 15 -5.5 29l-3.5 20q1 7 10 16l-50.5 -42.5t-39.5 -36.5q-5 -24 -20 -24t-24 33q-3 15 -5.5 29l-3.5 20q3 13 25 27q15 10 39.5 24.5l58.5 34.5l-58 49q-31 26 -68 38z" />
    <glyph glyph-name="onequarter" unicode="&#xbc;" horiz-adv-x="614" 
d="M216 812l-37 -14q6 -32 9.5 -54.5t3.5 -36.5v-195q0 -31 -2 -60.5t-6 -58.5l-264 -22l89 -58q34 6 72.5 10t84.5 8h8q-9 -45 -22.5 -86.5t-33.5 -79.5q-65 -136 -192 -230l33 -33q154 112 230 279q17 38 30 77t21 79l249 19v-277q0 -28 -6 -53l-107 60l-28 -28
q49 -39 85.5 -72t61.5 -62q9 -9 21 -9q16 0 22 25v-1q11 44 12 124v298l246 20v25l-55 45q-41 -10 -87.5 -17t-101.5 -11h-2v265q0 19 31 53l-69 55l-27 -42l-235 -25zM257 512v160l232 25v-279l-239 -21q4 28 5.5 56.5t1.5 58.5z" />
    <glyph glyph-name="onehalf" unicode="&#xbd;" horiz-adv-x="683" 
d="M686 752q-36 -13 -78.5 -20.5t-93.5 -12.5l-575 -59l88 -58q60 13 143 21l150 16q8 -20 12.5 -39.5t6.5 -36.5v-453q0 -62 -7 -84l-136 86l-16 -34q62 -54 99.5 -91t54.5 -60q18 -24 37 -24q34 68 34 203v416q2 18 8.5 38t18.5 45l-45 40l354 37v25z" />
    <glyph glyph-name="threequarters" unicode="&#xbe;" horiz-adv-x="730" 
d="M69 210q34 10 74.5 17.5t88.5 12.5l128 14q-7 -44 -11 -92.5t-6 -105.5q-5 -30 -34 -56l87 -81l37 20q-20 38 -20 88q0 58 4 116t12 118l346 36l-86 58q-29 -6 -63 -11t-72 -9l-112 -12q28 113 97 222h-1q97 142 269 249l-16 33q-142 -55 -246 -174q-89 -102 -129 -195
q-8 -17 -14.5 -36t-12.5 -39l-206 398l-211 -17v-39q128 -16 178 -59v1q44 -38 104 -150l105 -202l-344 -36v-25z" />
    <glyph glyph-name="questiondown" unicode="&#xbf;" horiz-adv-x="417" 
d="M133 345l190 -27l-20 117l35 79l43 -11q-11 -44 -11 -81q0 -20 2 -27t4 -15q2 -5 4 -11t4 -14q5 -23 13.5 -44t19.5 -40l-58 -52q-22 37 -41 40l-186 22q4 -33 11.5 -71.5t19 -77.5t26.5 -74t33 -60l124 99l34 -17l-87 -103.5t-53 -72.5v1q-7 -17 -21 -17q-13 0 -38 37
q-21 35 -40 79.5t-33.5 91.5t-25 94t-15.5 86q-2 12 -11.5 24.5t-28.5 26.5l69 62zM297 619q0 -53 12 -67q6 -6 16 -6q6 0 14 2.5t16 6.5t14.5 8.5t9.5 8.5l-2 -3q6 6 6 19q0 8 -0.5 12t-1.5 10q-5 30 -11 35.5t-19 5.5q-8 0 -17.5 -3t-17.5 -8t-13.5 -10.5t-5.5 -10.5z" />
    <glyph glyph-name="Agrave" unicode="&#xc0;" horiz-adv-x="550" 
d="M376 773h-27q-17 -36 -92 -80q-52 -32 -119 -60.5t-150 -55.5l13 -40q57 14 106.5 29t94.5 33q9 -30 9 -63v-71q0 -10 -0.5 -19t-0.5 -18l-314 -30l88 -58q34 7 72.5 12t86.5 9l62 6l-6.5 -42.5l-7.5 -46.5q-16 -88 -77 -190q-50 -77 -156 -152l11 -42q67 43 116.5 85.5
t81.5 85.5q31 47 52.5 95t32.5 99q6 29 11 57t8 57l186 17v-303q-5 -61 -26 -89q18 -49 49 -87q26 0 33 40q2 17 3.5 50.5t1.5 84.5v310l213 22v25l-55 45q-37 -10 -76 -17t-82 -12v241q2 28 9.5 47t23.5 30l-84 70l-29 -15q10 -28 14.5 -61t4.5 -71v-250l-183 -17l2 31v29
q0 46 27 97l-44 34q14 6 26 13l24 14h-1q29 16 62.5 29t68.5 24zM249 1051l-18 -35q29 -57 51.5 -107t37.5 -92h28q20 40 20 70q0 20 -20 46z" />
    <glyph glyph-name="Aacute" unicode="&#xc1;" horiz-adv-x="550" 
d="M376 773h-27q-17 -36 -92 -80q-52 -32 -119 -60.5t-150 -55.5l13 -40q57 14 106.5 29t94.5 33q9 -30 9 -63v-71q0 -10 -0.5 -19t-0.5 -18l-314 -30l88 -58q34 7 72.5 12t86.5 9l62 6l-6.5 -42.5l-7.5 -46.5q-16 -88 -77 -190q-50 -77 -156 -152l11 -42q67 43 116.5 85.5
t81.5 85.5q31 47 52.5 95t32.5 99q6 29 11 57t8 57l186 17v-303q-5 -61 -26 -89q18 -49 49 -87q26 0 33 40q2 17 3.5 50.5t1.5 84.5v310l213 22v25l-55 45q-37 -10 -76 -17t-82 -12v241q2 28 9.5 47t23.5 30l-84 70l-29 -15q10 -28 14.5 -61t4.5 -71v-250l-183 -17l2 31v29
q0 46 27 97l-44 34q14 6 26 13l24 14h-1q29 16 62.5 29t68.5 24zM300 777l99 117q20 26 20 47q0 27 -20 70h-28q-15 -42 -37.5 -92t-51.5 -107z" />
    <glyph glyph-name="Acircumflex" unicode="&#xc2;" horiz-adv-x="550" 
d="M509 823v24q-29 12 -65 40t-80 76l60 111l-25 29q-67 -93 -118.5 -156t-86.5 -99q-24 -5 -24 -20t33 -24q15 -3 29 -5.5l20 -3.5q13 3 27 25l25 39t35 59l48 -58q26 -31 38 -68zM376 773h-27q-17 -36 -92 -80q-52 -32 -119 -60.5t-150 -55.5l13 -40q57 14 106.5 29
t94.5 33q9 -30 9 -63v-71q0 -10 -0.5 -19t-0.5 -18l-314 -30l88 -58q34 7 72.5 12t86.5 9l62 6l-6.5 -42.5l-7.5 -46.5q-16 -88 -77 -190q-50 -77 -156 -152l11 -42q67 43 116.5 85.5t81.5 85.5q31 47 52.5 95t32.5 99q6 29 11 57t8 57l186 17v-303q-5 -61 -26 -89
q18 -49 49 -87q26 0 33 40q2 17 3.5 50.5t1.5 84.5v310l213 22v25l-55 45q-37 -10 -76 -17t-82 -12v241q2 28 9.5 47t23.5 30l-84 70l-29 -15q10 -28 14.5 -61t4.5 -71v-250l-183 -17l2 31v29q0 46 27 97l-44 34q14 6 26 13l24 14h-1q29 16 62.5 29t68.5 24z" />
    <glyph glyph-name="Atilde" unicode="&#xc3;" horiz-adv-x="550" 
d="M504 935l-68 25q-5 -15 -12 -28t-17 -24l-32 -39q-23 26 -52.5 64.5l-67.5 92.5l-23 -28l44 -82q-32 -34 -58.5 -54t-47.5 -29v-23l69 -25q9 33 27 52l31 38l24 -39.5t18 -27.5q10 -15 24 -19q5 1 15 2.5t21 3.5q12 4 17 7q11 -47 11 -102v-250l-183 -17l2 31v29
q0 46 27 97l-44 34q14 6 26 13l24 14h-1q29 16 62.5 29t68.5 24l-63 69h-27q-17 -36 -92 -80q-52 -32 -119 -60.5t-150 -55.5l13 -40q57 14 106.5 29t94.5 33q9 -30 9 -63v-71q0 -10 -0.5 -19t-0.5 -18l-314 -30l88 -58q34 7 72.5 12t86.5 9l62 6l-6.5 -42.5l-7.5 -46.5
q-16 -88 -77 -190q-50 -77 -156 -152l11 -42q67 43 116.5 85.5t81.5 85.5q31 47 52.5 95t32.5 99q6 29 11 57t8 57l186 17v-304q-5 -59 -26 -88q18 -49 49 -87q26 0 33 40q2 17 3.5 50.5t1.5 84.5v310l213 22v25l-55 45q-37 -10 -76 -17t-82 -12v241q2 28 9.5 47t23.5 30
l-84 70l-25 -13q-2 0 -3 0.5t-3 0.5q0 1 -1 1q29 31 54 49t45 27v23z" />
    <glyph glyph-name="Adieresis" unicode="&#xc4;" horiz-adv-x="550" 
d="M376 773h-27q-17 -36 -92 -80q-52 -32 -119 -60.5t-150 -55.5l13 -40q57 14 106.5 29t94.5 33q9 -30 9 -63v-71q0 -10 -0.5 -19t-0.5 -18l-314 -30l88 -58q34 7 72.5 12t86.5 9l62 6l-6.5 -42.5l-7.5 -46.5q-16 -88 -77 -190q-50 -77 -156 -152l11 -42q67 43 116.5 85.5
t81.5 85.5q31 47 52.5 95t32.5 99q6 29 11 57t8 57l186 17v-303q-5 -61 -26 -89q18 -49 49 -87q26 0 33 40q2 17 3.5 50.5t1.5 84.5v310l213 22v25l-55 45q-37 -10 -76 -17t-82 -12v241q2 28 9.5 47t23.5 30l-84 70l-29 -15q10 -28 14.5 -61t4.5 -71v-250l-183 -17l2 31v29
q0 46 27 97l-44 34q14 6 26 13l24 14h-1q29 16 62.5 29t68.5 24zM311 877q0 53 -12 67q-6 6 -16 6q-6 0 -14 -2.5t-16 -6.5t-14.5 -8.5t-9.5 -8.5l2 3q-6 -6 -6 -19q0 -8 0.5 -12t1.5 -10q3 -15 5.5 -23.5t5.5 -12t7.5 -4.5t11.5 -1q8 0 17.5 3t17.5 8t13.5 10.5t5.5 10.5z
M466 880q0 53 -12 67q-6 6 -16 6q-6 0 -14 -2.5t-16 -6.5t-14.5 -8.5t-9.5 -8.5l2 3q-6 -6 -6 -19q0 -8 0.5 -12t1.5 -10q3 -15 5.5 -23.5t5.5 -12t7.5 -4.5t11.5 -1q8 0 17.5 3t17.5 8t13.5 10.5t5.5 10.5z" />
    <glyph glyph-name="Aring" unicode="&#xc5;" horiz-adv-x="550" 
d="M482 895q0 16 -25 20l-143 138q-51 -56 -91 -88.5t-66 -44.5l2 1q-11 -3 -17 -10t-6 -11q0 -15 24 -21q25 -25 55.5 -62l68.5 -85q-11 -10 -25.5 -19l-31.5 -20q-52 -32 -119 -60.5t-150 -55.5l13 -40q57 14 106.5 29t94.5 33q9 -30 9 -63v-71q0 -10 -0.5 -19t-0.5 -18
l-314 -30l88 -58q34 7 72.5 12t86.5 9l62 6l-6.5 -42.5l-7.5 -46.5q-16 -88 -77 -190q-50 -77 -156 -152l11 -42q67 43 116.5 85.5t81.5 85.5q31 47 52.5 95t32.5 99q6 29 11 57t8 57l186 17v-304q-5 -59 -26 -88q18 -49 49 -87q26 0 33 40q2 17 3.5 50.5t1.5 84.5v310
l213 22v25l-55 45q-37 -10 -76 -17t-82 -12v240q2 29 9.5 48t23.5 30l-84 70l-29 -15q10 -28 14.5 -61t4.5 -71v-250l-183 -17l2 31v29q0 46 27 97l-44 34q14 6 26 13l24 14h-1q11 5 23.5 11.5t26.5 11.5l19 -25.5l18 -23.5l25 29l-21 38q1 0 2 0.5t2 0.5l-1 -1l9 3t26 12
l-61 66h-9q38 42 69 66t54 35h-1q11 5 17 8.5t6 12.5zM353 868l-48 -59l-32.5 54.5t-25.5 41.5q3 5 7.5 10.5l9.5 11.5l48 54q14 -20 26.5 -36t23.5 -28l8 -10l8 -10l-6.5 -8.5t-7.5 -8.5q-3 -4 -6 -7t-5 -6v1zM240 915q5 0 5 -6h-1q-2 2 -4 6z" />
    <glyph glyph-name="AE" unicode="&#xc6;" horiz-adv-x="895" 
d="M671 824h-26q-20 -34 -97 -74l-25 -13t-32 -15q6 40 30 55l-84 70l-29 -15q10 -28 14.5 -61t4.5 -71v-2l-69 -23l-81 -26l2 2h-1q29 16 62.5 29t68.5 24l-63 69h-27q-17 -36 -92 -80q-52 -32 -119 -60.5t-150 -55.5l13 -40q57 14 106.5 29t94.5 33q9 -30 9 -63v-71
q0 -10 -0.5 -19t-0.5 -18l-314 -30l88 -58q34 7 72.5 12t86.5 9l62 6l-6.5 -42.5l-7.5 -46.5q-16 -88 -77 -190q-50 -77 -156 -152l11 -42q67 43 116.5 85.5t81.5 85.5q31 47 52.5 95t32.5 99q6 29 11 57t8 57l186 17v-303q-5 -61 -26 -89q18 -49 49 -87q26 0 33 40
q2 8 2 21v26q48 -21 138 -21q123 0 279 27q-5 22 -10.5 49.5t-10.5 56.5l-10 57.5t-9 54.5h-39v-159q0 -7 -44 -13q-46 -5 -84.5 -8t-71.5 -3q-87 0 -118 21q-16 9 -16 30v310l360 48v25l-74 49q-25 -14 -65 -26.5t-96 -20.5l-125 -17v207l128 43.5l137 48.5zM246 464v29
q0 46 27 97l-12 9l79.5 21.5t86.5 25.5v-195l-16 -2h1l-168 -16z" />
    <glyph glyph-name="Ccedilla" unicode="&#xc7;" horiz-adv-x="560" 
d="M265 -163l99 117q20 26 20 47q0 10 -3 22l209 36l-70 65q-17 -12 -32 -17.5t-29 -6.5l-340 -59l3 443q1 39 5 73.5t11 65.5l12 -10q28 9 60 16t68 12l288 45l-86 57q-27 -8 -52 -12t-53 -7l-233 -35q-20 65 -35 65q-9 0 -17 -18.5t-14 -41.5t-9 -42.5t-3 -21.5l-10 -574
q-3 -21 -43 -56l77 -65l31 43l193 33l-30 -67l-34 -72z" />
    <glyph glyph-name="Egrave" unicode="&#xc8;" horiz-adv-x="542" 
d="M352 793h-26q-20 -34 -97 -74q-84 -45 -366 -127l14 -39q96 21 232 63v-196l-201 -25l83 -61q20 6 50 13t68 13v-301q2 -54 32 -78q46 -35 163 -35q123 0 279 27q-5 22 -10.5 49.5t-10.5 56.5l-10 57.5t-9 54.5h-39v-159q0 -7 -44 -13q-46 -5 -84.5 -8t-71.5 -3
q-87 0 -118 21q-16 9 -16 30v310l360 48v25l-74 49q-25 -14 -65 -26.5t-96 -20.5l-125 -16v206l128 43.5l137 48.5zM168 1017l-18 -35q29 -57 51.5 -107t37.5 -92h28q20 40 20 70q0 20 -20 46z" />
    <glyph glyph-name="Eacute" unicode="&#xc9;" horiz-adv-x="542" 
d="M352 793h-26q-20 -34 -97 -74q-84 -45 -366 -127l14 -39q96 21 232 63v-196l-201 -25l83 -61q20 6 50 13t68 13v-301q2 -54 32 -78q46 -35 163 -35q123 0 279 27q-5 22 -10.5 49.5t-10.5 56.5l-10 57.5t-9 54.5h-39v-159q0 -7 -44 -13q-46 -5 -84.5 -8t-71.5 -3
q-87 0 -118 21q-16 9 -16 30v310l360 48v25l-74 49q-25 -14 -65 -26.5t-96 -20.5l-125 -16v206l128 43.5l137 48.5zM216 775l99 117q20 26 20 47q0 27 -20 70h-28q-15 -42 -37.5 -92t-51.5 -107z" />
    <glyph glyph-name="Ecircumflex" unicode="&#xca;" horiz-adv-x="542" 
d="M352 793h-26q-20 -34 -97 -74q-84 -45 -366 -127l14 -39q96 21 232 63v-196l-201 -25l83 -61q20 6 50 13t68 13v-301q2 -54 32 -78q46 -35 163 -35q123 0 279 27q-5 22 -10.5 49.5t-10.5 56.5l-10 57.5t-9 54.5h-39v-159q0 -7 -44 -13q-46 -5 -84.5 -8t-71.5 -3
q-87 0 -118 21q-16 9 -16 30v310l360 48v25l-74 49q-25 -14 -65 -26.5t-96 -20.5l-125 -16v206l128 43.5l137 48.5zM81 731l84 -31q12 38 37 68l49 58l35 -58.5t25 -39.5q14 -22 27 -25q6 1 19.5 3.5l28.5 5.5q34 9 34 24q0 16 -25 20q-35 36 -86 99t-118 156l-25 -29
l60 -111q-45 -48 -81 -76t-64 -40v-24z" />
    <glyph glyph-name="Edieresis" unicode="&#xcb;" horiz-adv-x="542" 
d="M352 793h-26q-20 -34 -97 -74q-84 -45 -366 -127l14 -39q96 21 232 63v-196l-201 -25l83 -61q20 6 50 13t68 13v-301q2 -54 32 -78q46 -35 163 -35q123 0 279 27q-5 22 -10.5 49.5t-10.5 56.5l-10 57.5t-9 54.5h-39v-159q0 -7 -44 -13q-46 -5 -84.5 -8t-71.5 -3
q-87 0 -118 21q-16 9 -16 30v310l360 48v25l-74 49q-25 -14 -65 -26.5t-96 -20.5l-125 -16v206l128 43.5l137 48.5zM227 825q0 53 -12 67q-6 6 -16 6q-6 0 -14 -2.5t-16 -6.5t-14.5 -8.5t-9.5 -8.5l2 3q-6 -6 -6 -19q0 -8 0.5 -12t1.5 -10q3 -15 5.5 -23.5t5.5 -12t7.5 -4.5
t11.5 -1q8 0 17.5 3t17.5 8t13.5 10.5t5.5 10.5zM382 828q0 53 -12 67q-6 6 -16 6q-6 0 -14 -2.5t-16 -6.5t-14.5 -8.5t-9.5 -8.5l2 3q-6 -6 -6 -19q0 -8 0.5 -12t1.5 -10q3 -15 5.5 -23.5t5.5 -12t7.5 -4.5t11.5 -1q8 0 17.5 3t17.5 8t13.5 10.5t5.5 10.5z" />
    <glyph glyph-name="Igrave" unicode="&#xcc;" horiz-adv-x="427" 
d="M389 821q-24 -17 -80 -27h1l-282 -40l69 -54q14 5 31.5 9t40.5 8h-1l51 7q3 -20 3 -31v-629q-81 -28 -143 -45.5t-107 -25.5l106 -56q44 26 97 45l295 125l-24 37l-163 -58v561q0 27 15 65l-19 20l168 23v25zM189 1054l-18 -35q29 -57 51.5 -107t37.5 -92h28q20 40 20 70
q0 20 -20 46z" />
    <glyph glyph-name="Iacute" unicode="&#xcd;" horiz-adv-x="427" 
d="M389 821q-24 -17 -80 -27h1l-282 -40l69 -54q14 5 31.5 9t40.5 8h-1l51 7q3 -20 3 -31v-629q-81 -28 -143 -45.5t-107 -25.5l106 -56q44 26 97 45l295 125l-24 37l-163 -58v561q0 27 15 65l-19 20l168 23v25zM211 806l99 117q20 26 20 47q0 27 -20 70h-28
q-15 -42 -37.5 -92t-51.5 -107z" />
    <glyph glyph-name="Icircumflex" unicode="&#xce;" horiz-adv-x="427" 
d="M389 821q-24 -17 -80 -27h1l-282 -40l69 -54q14 5 31.5 9t40.5 8h-1l51 7q3 -20 3 -31v-629q-81 -28 -143 -45.5t-107 -25.5l106 -56q44 26 97 45l295 125l-24 37l-163 -58v561q0 27 15 65l-19 20l168 23v25zM67 864l84 -31q12 38 37 68l49 58l35 -58.5t25 -39.5
q14 -22 27 -25q6 1 19.5 3.5l28.5 5.5q34 9 34 24q0 16 -25 20q-35 36 -86 99t-118 156l-25 -29l60 -111q-45 -48 -81 -76t-64 -40v-24z" />
    <glyph glyph-name="Idieresis" unicode="&#xcf;" horiz-adv-x="427" 
d="M389 821q-24 -17 -80 -27h1l-282 -40l69 -54q14 5 31.5 9t40.5 8h-1l51 7q3 -20 3 -31v-629q-81 -28 -143 -45.5t-107 -25.5l106 -56q44 26 97 45l295 125l-24 37l-163 -58v561q0 27 15 65l-19 20l168 23v25zM216 861q0 53 -12 67q-6 6 -16 6q-6 0 -14 -2.5t-16 -6.5
t-14.5 -8.5t-9.5 -8.5l2 3q-6 -6 -6 -19q0 -8 0.5 -12t1.5 -10q3 -15 5.5 -23.5t5.5 -12t7.5 -4.5t11.5 -1q8 0 17.5 3t17.5 8t13.5 10.5t5.5 10.5zM371 864q0 53 -12 67q-6 6 -16 6q-6 0 -14 -2.5t-16 -6.5t-14.5 -8.5t-9.5 -8.5l2 3q-6 -6 -6 -19q0 -8 0.5 -12t1.5 -10
q3 -15 5.5 -23.5t5.5 -12t7.5 -4.5t11.5 -1q8 0 17.5 3t17.5 8t13.5 10.5t5.5 10.5z" />
    <glyph glyph-name="Eth" unicode="&#xd0;" horiz-adv-x="510" 
d="M231 483q-32 -6 -63.5 -11t-58.5 -5h-17l9 276q0 1 19 1q5 0 11.5 -0.5t14.5 -1.5q45 -5 82 -11t71 -14q42 -11 72.5 -40.5t50.5 -63t29.5 -64.5t9.5 -44v-1l-176 -427q-62 -5 -136.5 -12t-143.5 -15l63 -84l26 -8q17 17 44.5 28.5t68.5 20.5q51 15 146.5 24t240.5 14
l-7 39q-16 1 -39.5 1.5t-40.5 0.5q-35 0 -74.5 -1.5t-81.5 -3.5l179 436l-8 20l-27.5 63.5t-41.5 73.5t-59.5 65t-79.5 38q-58 12 -124.5 22t-153.5 18v-80q0 -49 0.5 -120t0.5 -147h-202l76 -69q11 2 17 2h11h25h24q12 0 26 1h23v-89v-58q0 -28 -0.5 -51.5t-1 -41
t-0.5 -24.5h48l7 264l181 1l11 22z" />
    <glyph glyph-name="Ntilde" unicode="&#xd1;" horiz-adv-x="558" 
d="M589 721q-37 -19 -123 -29l-263 -29q38 54 79 74l-65 102l-29 -22q-14 -83 -91 -203q-42 -66 -92 -126t-110 -117l28 -28q54 44 100 90t86 95v-446q0 -50 -17 -70q8 -28 18 -50.5t21 -42.5q29 0 31 22q4 17 6 48.5t2 81.5v539l1 1l22 -15q10 2 35 6l54.5 8.5l58 8.5
t45.5 6l102 11q5 -15 8.5 -30.5t5.5 -31.5v-462q0 -51 -6 -72l-164 122l-17 -34q69 -63 111.5 -106t62.5 -70q11 -14 18.5 -20.5t22.5 -6.5q33 64 33 183v436q2 16 8 34t14 38l-30 26l99 9v25zM549 822l-68 25q-5 -15 -12 -28t-17 -24l-32 -39q-23 26 -52.5 64.5l-67.5 92.5
l-23 -28l44 -82q-32 -34 -58.5 -54t-47.5 -29v-23l69 -25q9 33 27 52l31 38l24 -39.5t18 -27.5q10 -15 24 -19q5 1 15 2.5t21 3.5q28 9 28 21q0 10 -5 13.5t-16 5.5q0 1 -1 1q29 31 54 49t45 27v23z" />
    <glyph glyph-name="Ograve" unicode="&#xd2;" 
d="M87 768l-25 -8q13 -54 18 -90v2l8 -613q-2 -35 -13 -69l51 -71q8 0 16.5 5.5t10.5 16.5v58l251 18q26 -68 42 -68q19 0 28 66q4 29 5.5 52.5t1.5 43.5l27 547q1 10 10.5 22.5t31.5 29.5l-74 61l-32 -42l-311 -36q-5 14 -12 30.5l-15 36.5zM413 72l-23 19q-38 -17 -58 -18
l-180 -13l-10 572l303 36l-25 -556q0 -23 -7 -40zM237 992l-18 -35q29 -57 51.5 -107t37.5 -92h28q20 40 20 70q0 20 -20 46z" />
    <glyph glyph-name="Oacute" unicode="&#xd3;" 
d="M87 768l-25 -8q13 -54 18 -90v2l8 -613q-2 -35 -13 -69l51 -71q8 0 16.5 5.5t10.5 16.5v58l251 18q26 -68 42 -68q19 0 28 66q4 29 5.5 52.5t1.5 43.5l27 547q1 10 10.5 22.5t31.5 29.5l-74 61l-32 -42l-311 -36q-5 14 -12 30.5l-15 36.5zM413 72l-23 19q-38 -17 -58 -18
l-180 -13l-10 572l303 36l-25 -556q0 -23 -7 -40zM265 727l99 117q20 26 20 47q0 27 -20 70h-28q-15 -42 -37.5 -92t-51.5 -107z" />
    <glyph glyph-name="Ocircumflex" unicode="&#xd4;" 
d="M87 768l-25 -8q13 -54 18 -90v2l8 -613q-2 -35 -13 -69l51 -71q8 0 16.5 5.5t10.5 16.5v58l251 18q26 -68 42 -68q19 0 28 66q4 29 5.5 52.5t1.5 43.5l27 547q1 10 10.5 22.5t31.5 29.5l-74 61l-32 -42l-311 -36q-5 14 -12 30.5l-15 36.5zM413 72l-23 19q-38 -17 -58 -18
l-180 -13l-10 572l303 36l-25 -556q0 -23 -7 -40zM122 777l84 -31q12 38 37 68l49 58l35 -58.5t25 -39.5q14 -22 27 -25q6 1 19.5 3.5l28.5 5.5q34 9 34 24q0 16 -25 20q-35 36 -86 99t-118 156l-25 -29l60 -111q-45 -48 -81 -76t-64 -40v-24z" />
    <glyph glyph-name="Otilde" unicode="&#xd5;" 
d="M87 768l-25 -8q13 -54 18 -90v2l8 -613q-2 -35 -13 -69l51 -71q8 0 16.5 5.5t10.5 16.5v58l251 18q26 -68 42 -68q19 0 28 66q4 29 5.5 52.5t1.5 43.5l27 547q1 10 10.5 22.5t31.5 29.5l-74 61l-32 -42l-311 -36q-5 14 -12 30.5l-15 36.5zM413 72l-23 19q-38 -17 -58 -18
l-180 -13l-10 572l303 36l-25 -556q0 -23 -7 -40zM473 880l-68 25q-5 -15 -12 -28t-17 -24l-32 -39q-23 26 -52.5 64.5l-67.5 92.5l-23 -28l44 -82q-32 -34 -58.5 -54t-47.5 -29v-23l69 -25q9 33 27 52l31 38l24 -39.5t18 -27.5q10 -15 24 -19q5 1 15 2.5t21 3.5q28 9 28 21
q0 10 -5 13.5t-16 5.5q0 1 -1 1q29 31 54 49t45 27v23z" />
    <glyph glyph-name="Odieresis" unicode="&#xd6;" 
d="M87 768l-25 -8q13 -54 18 -90v2l8 -613q-2 -35 -13 -69l51 -71q8 0 16.5 5.5t10.5 16.5v58l251 18q26 -68 42 -68q19 0 28 66q4 29 5.5 52.5t1.5 43.5l27 547q1 10 10.5 22.5t31.5 29.5l-74 61l-32 -42l-311 -36q-5 14 -12 30.5l-15 36.5zM413 72l-23 19q-38 -17 -58 -18
l-180 -13l-10 572l303 36l-25 -556q0 -23 -7 -40zM270 793q0 53 -12 67q-6 6 -16 6q-6 0 -14 -2.5t-16 -6.5t-14.5 -8.5t-9.5 -8.5l2 3q-6 -6 -6 -19q0 -8 0.5 -12t1.5 -10q3 -15 5.5 -23.5t5.5 -12t7.5 -4.5t11.5 -1q8 0 17.5 3t17.5 8t13.5 10.5t5.5 10.5zM425 796
q0 53 -12 67q-6 6 -16 6q-6 0 -14 -2.5t-16 -6.5t-14.5 -8.5t-9.5 -8.5l2 3q-6 -6 -6 -19q0 -8 0.5 -12t1.5 -10q3 -15 5.5 -23.5t5.5 -12t7.5 -4.5t11.5 -1q8 0 17.5 3t17.5 8t13.5 10.5t5.5 10.5z" />
    <glyph glyph-name="multiply" unicode="&#xd7;" horiz-adv-x="386" 
d="M373 211q-33 10 -101 61h1l-26 21l39 40h-1q40 35 57 35h21l-11 106l-30 11q-27 -55 -80 -108l-45 -46l-160 131l10 -89q17 -8 37.5 -23t46.5 -36l27 -22l-25 -25h1q-45 -40 -80 -43q-11 -23 -19 -47.5t-10 -50.5q8 -8 11.5 -9t7.5 -1q9 0 32 15l43 37t58 55l29 29
l158 -125l21 14z" />
    <glyph glyph-name="Oslash" unicode="&#xd8;" 
d="M70 772l-38 -12q13 -54 18 -90v2l8 -613q-2 -35 -13 -69l10 -13l10 -14l31 -44q8 0 16.5 5.5t10.5 16.5v23q5 6 7 13t2 15q0 2 -0.5 3.5t-0.5 3.5l243 18q26 -68 42 -68q19 0 28 66q4 29 5.5 52.5t1.5 43.5l27 547q1 10 10.5 22.5t31.5 29.5l-69 57l-98 -46l-250 -28
q-5 14 -13.5 33.5zM383 72l-23 19q-38 -17 -58 -18l-165 -12q13 53 46 126q15 39 36 89l43 99l42.5 91.5t34.5 66.5q18 31 36.5 58t38.5 53l-24 -532q0 -23 -7 -40zM266 505l-33.5 -69l-37.5 -82l-38.5 -88.5l-36.5 -88.5l-8 455l219 25q-19 -58 -65 -152z" />
    <glyph glyph-name="Ugrave" unicode="&#xd9;" horiz-adv-x="516" 
d="M585 42l-84 62q-19 -9 -53 -18h2l-11 -2v17q0 70 27 207q16 72 34 127t37 94q26 53 58.5 101t73.5 94l-17 33q-30 -24 -62 -58t-64 -79q-52 -77 -80 -153q-20 -49 -36 -119t-30 -167v1q-9 -50 -24 -79l23 -28l-233 -31q21 206 50 353.5t69 243.5l94 -109l26 30
q-32 48 -58 92.5t-48 86.5q-7 7 -13 10t-9 3q-25 0 -68 -123q-32 -103 -58 -241t-49 -317v1q-8 -44 -53 -67l87 -62l27 37zM367 946l-18 -35q29 -57 51.5 -107t37.5 -92h28q20 40 20 70q0 20 -20 46z" />
    <glyph glyph-name="Uacute" unicode="&#xda;" horiz-adv-x="516" 
d="M585 42l-84 62q-19 -9 -53 -18h2l-11 -2v17q0 70 27 207q16 72 34 127t37 94q26 53 58.5 101t73.5 94l-17 33q-30 -24 -62 -58t-64 -79q-52 -77 -80 -153q-20 -49 -36 -119t-30 -167v1q-9 -50 -24 -79l23 -28l-233 -31q21 206 50 353.5t69 243.5l94 -109l26 30
q-32 48 -58 92.5t-48 86.5q-7 7 -13 10t-9 3q-25 0 -68 -123q-32 -103 -58 -241t-49 -317v1q-8 -44 -53 -67l87 -62l27 37zM409 673l99 117q20 26 20 47q0 27 -20 70h-28q-15 -42 -37.5 -92t-51.5 -107z" />
    <glyph glyph-name="Ucircumflex" unicode="&#xdb;" horiz-adv-x="516" 
d="M585 42l-84 62q-19 -9 -53 -18h2l-11 -2v17q0 70 27 207q16 72 34 127t37 94q26 53 58.5 101t73.5 94l-17 33q-30 -24 -62 -58t-64 -79q-52 -77 -80 -153q-20 -49 -36 -119t-30 -167v1q-9 -50 -24 -79l23 -28l-233 -31q21 206 50 353.5t69 243.5l94 -109l26 30
q-32 48 -58 92.5t-48 86.5q-7 7 -13 10t-9 3q-25 0 -68 -123q-32 -103 -58 -241t-49 -317v1q-8 -44 -53 -67l87 -62l27 37zM284 742l84 -31q12 38 37 68l49 58l35 -58.5t25 -39.5q14 -22 27 -25q6 1 19.5 3.5l28.5 5.5q34 9 34 24q0 16 -25 20q-35 36 -86 99t-118 156
l-25 -29l60 -111q-45 -48 -81 -76t-64 -40v-24z" />
    <glyph glyph-name="Udieresis" unicode="&#xdc;" horiz-adv-x="516" 
d="M585 42l-84 62q-19 -9 -53 -18h2l-11 -2v17q0 70 27 207q16 72 34 127t37 94q26 53 58.5 101t73.5 94l-17 33q-30 -24 -62 -58t-64 -79q-52 -77 -80 -153q-20 -49 -36 -119t-30 -167v1q-9 -50 -24 -79l23 -28l-233 -31q21 206 50 353.5t69 243.5l94 -109l26 30
q-32 48 -58 92.5t-48 86.5q-7 7 -13 10t-9 3q-25 0 -68 -123q-32 -103 -58 -241t-49 -317v1q-8 -44 -53 -67l87 -62l27 37zM421 758q0 53 -12 67q-6 6 -16 6q-6 0 -14 -2.5t-16 -6.5t-14.5 -8.5t-9.5 -8.5l2 3q-6 -6 -6 -19q0 -8 0.5 -12t1.5 -10q3 -15 5.5 -23.5t5.5 -12
t7.5 -4.5t11.5 -1q8 0 17.5 3t17.5 8t13.5 10.5t5.5 10.5zM576 761q0 53 -12 67q-6 6 -16 6q-6 0 -14 -2.5t-16 -6.5t-14.5 -8.5t-9.5 -8.5l2 3q-6 -6 -6 -19q0 -8 0.5 -12t1.5 -10q3 -15 5.5 -23.5t5.5 -12t7.5 -4.5t11.5 -1q8 0 17.5 3t17.5 8t13.5 10.5t5.5 10.5z" />
    <glyph glyph-name="Yacute" unicode="&#xdd;" horiz-adv-x="443" 
d="M15 892l-17 -34l22.5 -34l25.5 -37l40 -59l39 -57.5t31.5 -50.5t19.5 -37v1q4 -13 25 -14q10 -28 14.5 -61t4.5 -71v-367q-2 -30 -8 -51.5t-17 -35.5q18 -51 49 -88q24 0 32 38q2 17 3.5 51t1.5 86v367q4 55 34 77l-27 21l10.5 10.5t11.5 12.5v-1l45 45.5l50.5 53.5
l50 57t43.5 57q11 17 24 31.5t28 26.5l-36 90h-33q-19 -84 -67 -164q-12 -20 -39.5 -49l-56.5 -61l-38 -40.5l-32 -35.5l-19 16l-20 -11q15 39 15 73q0 7 -10 22.5t-23 32.5l-25 31.5t-16 18.5v-1zM228 825l99 117q20 26 20 47q0 27 -20 70h-28q-15 -42 -37.5 -92
t-51.5 -107z" />
    <glyph glyph-name="Thorn" unicode="&#xde;" horiz-adv-x="382" 
d="M42 524l20 -19l19 13v-438q-5 -59 -26 -88q8 -24 20 -46.5t29 -42.5q26 0 33 40q2 17 3.5 51t1.5 85v100l40 -42.5l33 -33.5q31 -31 43 -46q13 -8 23 -8q21 0 33 83v-1q10 45 22.5 151.5t29.5 279.5q1 11 31 41l-67 61l-36 -48l-152 -23v86q2 29 9.5 48t23.5 30l-84 70
l-29 -15q10 -28 14.5 -61t4.5 -71v-96h-3zM250 154l-106 65l-2 -3v319l156 24q-21 -278 -48 -405z" />
    <glyph glyph-name="germandbls" unicode="&#xdf;" horiz-adv-x="490" 
d="M103 768l-35 -13q1 -5 3.5 -23.5t4.5 -31.5q1 -7 1.5 -12.5t1.5 -11.5v-264l-257 -27l81 -58q17 4 41.5 8.5t56.5 8.5l78 8v-550q0 -17 -1.5 -30t-3.5 -23l-123 74l-16 -33q111 -99 140 -137q17 -23 27 -23q17 0 27 39l-1 -1q6 15 8.5 39t3.5 56v861l243 -92l-159 -252
l57 -24t37.5 -18t22.5 -15.5t12 -16.5q21 -44 21 -91q0 -23 -3 -44t-12 -39l-185 93l-16 -32l20 -14.5l21 -15.5l43 -31l42.5 -31t36 -28t23.5 -22q11 -11 21 -11q5 0 14 7t18 21q38 62 38 135q0 34 -5.5 64.5t-17.5 56.5q-10 23 -33.5 50t-59.5 37q19 36 41.5 71.5l43 66.5
t36.5 53t24 31q8 11 19 20t28 19l-77 58l-27 -40l-268 103z" />
    <glyph glyph-name="agrave" unicode="&#xe0;" horiz-adv-x="475" 
d="M465 -61l36 13q-12 91 -12 139l-2 242q0 70 -53 101l1 -1q-19 14 -62.5 28t-100.5 14q-34 0 -68 -6h3q-1 0 -13.5 -1t-50.5 -9q9 -40 15.5 -81.5t10.5 -86.5l-89 -13v-24l31 -26l-37 -171q0 -12 -39 -45l72 -66l35 45l289 34zM182 122h42l-3 110l200 29l2 -175l-278 -33
l30 165l4.5 -52.5t2.5 -43.5zM224 400v6q0 1 17 1h11q111 -4 139 -20h-1q31 -19 31 -54v-9l-198 -26zM245 731l-18 -35q29 -57 51.5 -107t37.5 -92h28q20 40 20 70q0 20 -20 46z" />
    <glyph glyph-name="aacute" unicode="&#xe1;" horiz-adv-x="475" 
d="M465 -61l36 13q-12 91 -12 139l-2 242q0 70 -53 101l1 -1q-19 14 -62.5 28t-100.5 14q-34 0 -68 -6h3q-1 0 -13.5 -1t-50.5 -9q9 -40 15.5 -81.5t10.5 -86.5l-89 -13v-24l31 -26l-37 -171q0 -12 -39 -45l72 -66l35 45l289 34zM182 122h42l-3 110l200 29l2 -175l-278 -33
l30 165l4.5 -52.5t2.5 -43.5zM224 400v6q0 1 17 1h11q111 -4 139 -20h-1q31 -19 31 -54v-9l-198 -26zM254 481l99 117q20 26 20 47q0 27 -20 70h-28q-15 -42 -37.5 -92t-51.5 -107z" />
    <glyph glyph-name="acircumflex" unicode="&#xe2;" horiz-adv-x="475" 
d="M465 -61l36 13q-12 91 -12 139l-2 242q0 70 -53 101l1 -1q-19 14 -62.5 28t-100.5 14q-34 0 -68 -6h3q-1 0 -13.5 -1t-50.5 -9q9 -40 15.5 -81.5t10.5 -86.5l-89 -13v-24l31 -26l-37 -171q0 -12 -39 -45l72 -66l35 45l289 34zM182 122h42l-3 110l200 29l2 -175l-278 -33
l30 165l4.5 -52.5t2.5 -43.5zM224 400v6q0 1 17 1h11q111 -4 139 -20h-1q31 -19 31 -54v-9l-198 -26zM123 524l84 -31q12 38 37 68l49 58l35 -58.5t25 -39.5q14 -22 27 -25q6 1 19.5 3.5l28.5 5.5q34 9 34 24q0 16 -25 20q-35 36 -86 99t-118 156l-25 -29l60 -111
q-45 -48 -81 -76t-64 -40v-24z" />
    <glyph glyph-name="atilde" unicode="&#xe3;" horiz-adv-x="475" 
d="M465 -61l36 13q-12 91 -12 139l-2 242q0 70 -53 101l1 -1q-19 14 -62.5 28t-100.5 14q-34 0 -68 -6h3q-1 0 -13.5 -1t-50.5 -9q9 -40 15.5 -81.5t10.5 -86.5l-89 -13v-24l31 -26l-37 -171q0 -12 -39 -45l72 -66l35 45l289 34zM182 122h42l-3 110l200 29l2 -175l-278 -33
l30 165l4.5 -52.5t2.5 -43.5zM224 400v6q0 1 17 1h11q111 -4 139 -20h-1q31 -19 31 -54v-9l-198 -26zM477 623l-68 25q-5 -15 -12 -28t-17 -24l-32 -39q-23 26 -52.5 64.5l-67.5 92.5l-23 -28l44 -82q-32 -34 -58.5 -54t-47.5 -29v-23l69 -25q9 33 27 52l31 38l24 -39.5
t18 -27.5q10 -15 24 -19q5 1 15 2.5t21 3.5q28 9 28 21q0 10 -5 13.5t-16 5.5q0 1 -1 1q29 31 54 49t45 27v23z" />
    <glyph glyph-name="adieresis" unicode="&#xe4;" horiz-adv-x="475" 
d="M465 -61l36 13q-12 91 -12 139l-2 242q0 70 -53 101l1 -1q-19 14 -62.5 28t-100.5 14q-34 0 -68 -6h3q-1 0 -13.5 -1t-50.5 -9q9 -40 15.5 -81.5t10.5 -86.5l-89 -13v-24l31 -26l-37 -171q0 -12 -39 -45l72 -66l35 45l289 34zM182 122h42l-3 110l200 29l2 -175l-278 -33
l30 165l4.5 -52.5t2.5 -43.5zM224 400v6q0 1 17 1h11q111 -4 139 -20h-1q31 -19 31 -54v-9l-198 -26zM262 548q0 53 -12 67q-6 6 -16 6q-6 0 -14 -2.5t-16 -6.5t-14.5 -8.5t-9.5 -8.5l2 3q-6 -6 -6 -19q0 -8 0.5 -12t1.5 -10q3 -15 5.5 -23.5t5.5 -12t7.5 -4.5t11.5 -1
q8 0 17.5 3t17.5 8t13.5 10.5t5.5 10.5zM417 551q0 53 -12 67q-6 6 -16 6q-6 0 -14 -2.5t-16 -6.5t-14.5 -8.5t-9.5 -8.5l2 3q-6 -6 -6 -19q0 -8 0.5 -12t1.5 -10q3 -15 5.5 -23.5t5.5 -12t7.5 -4.5t11.5 -1q8 0 17.5 3t17.5 8t13.5 10.5t5.5 10.5z" />
    <glyph glyph-name="aring" unicode="&#xe5;" horiz-adv-x="475" 
d="M449 656q0 16 -25 20l-143 138q-51 -56 -91 -88.5t-66 -44.5l2 1q-11 -3 -17 -10t-6 -11q0 -15 24 -21l61 -69t78 -97q-6 1 -12 1h-12q-35 0 -68 -6q-5 -1 -18 -2.5t-43 -7.5q9 -40 15.5 -81.5t10.5 -86.5l-89 -13v-24l31 -26l-37 -171q0 -12 -39 -45l72 -66l35 45
l289 34l34 -86l36 13q-12 91 -12 139l-2 242q0 70 -53 101l1 -1q-11 8 -30.5 17t-45.5 15l-32 60q41 45 73 72t57 38h-1q11 5 17 8.5t6 12.5zM152 122h42l-3 110l200 29l2 -175l-278 -33l30 165l4.5 -52.5t2.5 -43.5zM194 400v6q0 1 17 1h11q60 -3 96 -9q2 -3 18 -3
q8 -2 14 -4t11 -4h-1q31 -19 31 -54v-9l-198 -26zM320 629l-48 -59l-32.5 54.5t-25.5 41.5q3 5 7.5 10.5l9.5 11.5l48 54q14 -20 26.5 -36t23.5 -28l8 -10l8 -10l-6.5 -8.5t-7.5 -8.5q-3 -4 -6 -7t-5 -6v1zM207 676q5 0 5 -6h-1q-2 2 -4 6z" />
    <glyph glyph-name="ae" unicode="&#xe6;" horiz-adv-x="746" 
d="M385 476q1 -6 1.5 -16t1.5 -17q-23 12 -61 22t-85 10q-34 0 -68 -6q-5 -1 -18 -2.5t-43 -7.5q9 -40 15.5 -81.5t10.5 -86.5l-89 -13v-24l31 -26l-37 -171q0 -12 -39 -45l72 -66l35 45l289 34l34 -86l35 13q0 3 -0.5 11.5t-0.5 10.5v3q13 -5 32.5 -9.5t42 -7.5t46 -4.5
t46.5 -1.5q36 0 65.5 7t41.5 24q-14 10 -22.5 19t-14 21.5t-9.5 31.5t-7 49h-40l-1 -62q0 -25 -19 -33q-57 0 -90 5t-47 13q-17 7 -24.5 28.5t-9.5 47.5l-1 118q29 -21 55 -33l48 -22l26 -12t13 -7q12 -8 20 -8q17 0 31 34q6 9 16.5 35t22.5 59.5t23.5 70.5t19.5 67
q4 14 32 40l-64 53l-31 -39l-226 -32l-21 60zM152 122h42l-3 110l200 29l2 -175l-278 -33l30 164l4.5 -52t2.5 -43zM456 342v32l207 28q-6 -23 -14 -49.5t-17 -51.5t-17.5 -46t-14.5 -34l-139 44l-4 -4v72q0 2 -0.5 4.5t-0.5 4.5zM194 400v6q0 1 17 1h11q111 -4 139 -20h-1
q31 -19 31 -54v-9l-198 -26z" />
    <glyph glyph-name="ccedilla" unicode="&#xe7;" horiz-adv-x="415" 
d="M155 -164l99 117q20 26 20 47q0 7 -1 11l69 4q74 14 74 34q0 16 -91 49q-18 -21 -70 -26l-145 -6l33 335l191 -3q33 0 55 1t32 5q34 2 34 33q-18 11 -41.5 20t-52.5 19q-30 -16 -67 -17h1l-140 4q-34 0 -116 14l-12 -37l60 -29l-34 -337l-39 -32l54 -79q17 20 29.5 29
t22.5 11l81 4l-29 -63.5l-35 -72.5z" />
    <glyph glyph-name="egrave" unicode="&#xe8;" horiz-adv-x="396" 
d="M64 500q9 -83 9 -123v-191q0 -16 1 -43t7 -54.5t18 -50.5t35 -31q10 -6 30 -11.5t44.5 -9.5t52 -6t53.5 -2q36 0 65.5 7t41.5 24q-14 10 -22.5 19t-14 21.5t-9.5 31.5t-7 49h-40l-1 -62q0 -25 -19 -33q-57 0 -90 5t-47 13q-14 6 -21 23.5t-11 38.5t-4.5 41t-0.5 31v61
q30 -22 56.5 -34l48.5 -22l26 -12t13 -7q12 -8 20 -8q17 0 31 34q6 9 16.5 35t22.5 59.5t23.5 70.5t19.5 67q4 14 32 40l-64 53l-31 -39l-226 -32l-21 60zM278 245l-139 44l-5 -6v115l207 28q-6 -23 -14 -49.5t-17 -51.5t-17.5 -46t-14.5 -34zM181 762l-18 -35
q29 -57 51.5 -107t37.5 -92h28q20 40 20 70q0 20 -20 46z" />
    <glyph glyph-name="eacute" unicode="&#xe9;" horiz-adv-x="396" 
d="M64 500q9 -83 9 -123v-191q0 -16 1 -43t7 -54.5t18 -50.5t35 -31q10 -6 30 -11.5t44.5 -9.5t52 -6t53.5 -2q36 0 65.5 7t41.5 24q-14 10 -22.5 19t-14 21.5t-9.5 31.5t-7 49h-40l-1 -62q0 -25 -19 -33q-57 0 -90 5t-47 13q-14 6 -21 23.5t-11 38.5t-4.5 41t-0.5 31v61
q30 -22 56.5 -34l48.5 -22l26 -12t13 -7q12 -8 20 -8q17 0 31 34q6 9 16.5 35t22.5 59.5t23.5 70.5t19.5 67q4 14 32 40l-64 53l-31 -39l-226 -32l-21 60zM278 245l-139 44l-5 -6v115l207 28q-6 -23 -14 -49.5t-17 -51.5t-17.5 -46t-14.5 -34zM221 523l99 117q20 26 20 47
q0 27 -20 70h-28q-15 -42 -37.5 -92t-51.5 -107z" />
    <glyph glyph-name="ecircumflex" unicode="&#xea;" horiz-adv-x="396" 
d="M64 500q9 -83 9 -123v-191q0 -16 1 -43t7 -54.5t18 -50.5t35 -31q10 -6 30 -11.5t44.5 -9.5t52 -6t53.5 -2q36 0 65.5 7t41.5 24q-14 10 -22.5 19t-14 21.5t-9.5 31.5t-7 49h-40l-1 -62q0 -25 -19 -33q-57 0 -90 5t-47 13q-14 6 -21 23.5t-11 38.5t-4.5 41t-0.5 31v61
q30 -22 56.5 -34l48.5 -22l26 -12t13 -7q12 -8 20 -8q17 0 31 34q6 9 16.5 35t22.5 59.5t23.5 70.5t19.5 67q4 14 32 40l-64 53l-31 -39l-226 -32l-21 60zM278 245l-139 44l-5 -6v115l207 28q-6 -23 -14 -49.5t-17 -51.5t-17.5 -46t-14.5 -34zM84 553l84 -31q12 38 37 68
l49 58l35 -58.5t25 -39.5q14 -22 27 -25q6 1 19.5 3.5l28.5 5.5q34 9 34 24q0 16 -25 20q-35 36 -86 99t-118 156l-25 -29l60 -111q-45 -48 -81 -76t-64 -40v-24z" />
    <glyph glyph-name="edieresis" unicode="&#xeb;" horiz-adv-x="396" 
d="M64 500q9 -83 9 -123v-191q0 -16 1 -43t7 -54.5t18 -50.5t35 -31q10 -6 30 -11.5t44.5 -9.5t52 -6t53.5 -2q36 0 65.5 7t41.5 24q-14 10 -22.5 19t-14 21.5t-9.5 31.5t-7 49h-40l-1 -62q0 -25 -19 -33q-57 0 -90 5t-47 13q-14 6 -21 23.5t-11 38.5t-4.5 41t-0.5 31v61
q30 -22 56.5 -34l48.5 -22l26 -12t13 -7q12 -8 20 -8q17 0 31 34q6 9 16.5 35t22.5 59.5t23.5 70.5t19.5 67q4 14 32 40l-64 53l-31 -39l-226 -32l-21 60zM278 245l-139 44l-5 -6v115l207 28q-6 -23 -14 -49.5t-17 -51.5t-17.5 -46t-14.5 -34zM206 572q0 53 -12 67
q-6 6 -16 6q-6 0 -14 -2.5t-16 -6.5t-14.5 -8.5t-9.5 -8.5l2 3q-6 -6 -6 -19q0 -8 0.5 -12t1.5 -10q3 -15 5.5 -23.5t5.5 -12t7.5 -4.5t11.5 -1q8 0 17.5 3t17.5 8t13.5 10.5t5.5 10.5zM361 575q0 53 -12 67q-6 6 -16 6q-6 0 -14 -2.5t-16 -6.5t-14.5 -8.5t-9.5 -8.5l2 3
q-6 -6 -6 -19q0 -8 0.5 -12t1.5 -10q3 -15 5.5 -23.5t5.5 -12t7.5 -4.5t11.5 -1q8 0 17.5 3t17.5 8t13.5 10.5t5.5 10.5z" />
    <glyph glyph-name="igrave" unicode="&#xec;" horiz-adv-x="402" 
d="M94 373q5 3 18.5 9.5t29.5 13t31 11.5t22 5l3 -1l1 -378q0 -39 -52 -73l88 -40q14 20 72 80l160 162l-36 18l-171 -137l-1 335q2 18 13 34.5t33 29.5l-77 71l-33 -36l-161 -34zM138 826l-18 -35q29 -57 51.5 -107t37.5 -92h28q20 40 20 70q0 20 -20 46z" />
    <glyph glyph-name="iacute" unicode="&#xed;" horiz-adv-x="379" 
d="M94 373q5 3 18.5 9.5t29.5 13t31 11.5t22 5l3 -1l1 -378q0 -39 -52 -73l88 -40q14 20 72 80l160 162l-36 18l-171 -137l-1 335q2 18 13 34.5t33 29.5l-77 71l-33 -36l-161 -34zM192 534l99 117q20 26 20 47q0 27 -20 70h-28q-15 -42 -37.5 -92t-51.5 -107z" />
    <glyph glyph-name="icircumflex" unicode="&#xee;" horiz-adv-x="402" 
d="M94 373q5 3 18.5 9.5t29.5 13t31 11.5t22 5l3 -1l1 -378q0 -39 -52 -73l88 -40q14 20 72 80l160 162l-36 18l-171 -137l-1 335q2 18 13 34.5t33 29.5l-77 71l-33 -36l-161 -34zM57 572l84 -31q12 38 37 68l49 58l35 -58.5t25 -39.5q14 -22 27 -25q6 1 19.5 3.5l28.5 5.5
q34 9 34 24q0 16 -25 20q-35 36 -86 99t-118 156l-25 -29l60 -111q-45 -48 -81 -76t-64 -40v-24z" />
    <glyph glyph-name="idieresis" unicode="&#xef;" horiz-adv-x="402" 
d="M94 373q5 3 18.5 9.5t29.5 13t31 11.5t22 5l3 -1l1 -378q0 -39 -52 -73l88 -40q14 20 72 80l160 162l-36 18l-171 -137l-1 335q2 18 13 34.5t33 29.5l-77 71l-33 -36l-161 -34zM188 562q0 53 -12 67q-6 6 -16 6q-6 0 -14 -2.5t-16 -6.5t-14.5 -8.5t-9.5 -8.5l2 3
q-6 -6 -6 -19q0 -8 0.5 -12t1.5 -10q3 -15 5.5 -23.5t5.5 -12t7.5 -4.5t11.5 -1q8 0 17.5 3t17.5 8t13.5 10.5t5.5 10.5zM343 565q0 53 -12 67q-6 6 -16 6q-6 0 -14 -2.5t-16 -6.5t-14.5 -8.5t-9.5 -8.5l2 3q-6 -6 -6 -19q0 -8 0.5 -12t1.5 -10q3 -15 5.5 -23.5t5.5 -12
t7.5 -4.5t11.5 -1q8 0 17.5 3t17.5 8t13.5 10.5t5.5 10.5z" />
    <glyph glyph-name="eth" unicode="&#xf0;" horiz-adv-x="512" 
d="M433 788l-77 8q-20 -26 -42 -51.5t-48 -47.5q-66 76 -108 117l-246 -31v-40h40q61 -1 108 -4t85 -20q12 -5 22.5 -15t23.5 -24q11 -15 22 -26l-146 -128l102 -2q18 20 37 36v-1l18.5 16t20.5 19h-1l16 15q2 -3 7 -8q2 -2 3 -3.5t3 -3.5v1l45.5 -51.5t38.5 -44.5
l35.5 -45.5l37.5 -52.5l-364 -37v-25l28 -23l-22 -281q0 -9 -35 -38l63 -59l34 42l306 40l32 -79l39 13q-14 69 -15 112q-2 27 -3.5 62t-1.5 72q0 31 1 61.5t3 57t5 46.5t6 29q-19 30 -35 52.5l-32.5 44t-36 44.5l-44.5 54v-1q-3 4 -7 8.5t-8 9.5q-11 11 -19.5 22l-16.5 22
l131 115zM169 316l262 31q-2 -23 -2 -46v-48l2 -176l-295 -39l20 275q4 2 7 2q4 0 6 1z" />
    <glyph glyph-name="ntilde" unicode="&#xf1;" horiz-adv-x="419" 
d="M454 431l-70 56l-27 -42l-219 -25l-25 53l-36 -13q6 -42 9.5 -70.5t3.5 -45.5v-273q-2 -38 -16 -65q19 -61 38 -95q30 0 34 34q6 21 6 87v331l209 25v-317v-21t-1 -20l-68 45l-28 -28q38 -33 66.5 -63t49.5 -56q5 -5 15 -5q17 0 20 24q3 20 4.5 46.5t2.5 61.5v325l7 24
q2 3 7.5 9t17.5 18zM429 404v-1v1zM439 621l-68 25q-5 -15 -12 -28t-17 -24l-32 -39q-23 26 -52.5 64.5l-67.5 92.5l-23 -28l44 -82q-32 -34 -58.5 -54t-47.5 -29v-23l69 -25q9 33 27 52l31 38l24 -39.5t18 -27.5q10 -15 24 -19q5 1 15 2.5t21 3.5q28 9 28 21q0 10 -5 13.5
t-16 5.5q0 1 -1 1q29 31 54 49t45 27v23z" />
    <glyph glyph-name="ograve" unicode="&#xf2;" horiz-adv-x="428" 
d="M70 518l-24 -9q14 -59 18 -88l24 -403q-1 -17 -4.5 -33.5t-9.5 -34.5l52 -71q26 0 26 25l1 56l265 10v25l-32 26l51 391q0 11 36 41l-63 56l-34 -40l-259 -26q-5 14 -12 30.5l-16 36.5zM305 23l-156 -3l-22 366l244 25l-47 -385q-9 -3 -19 -3zM192 749l-18 -35
q29 -57 51.5 -107t37.5 -92h28q20 40 20 70q0 20 -20 46z" />
    <glyph glyph-name="oacute" unicode="&#xf3;" horiz-adv-x="428" 
d="M70 518l-24 -9q14 -59 18 -88l24 -403q-1 -17 -4.5 -33.5t-9.5 -34.5l52 -71q26 0 26 25l1 56l265 10v25l-32 26l51 391q0 11 36 41l-63 56l-34 -40l-259 -26q-5 14 -12 30.5l-16 36.5zM305 23l-156 -3l-22 366l244 25l-47 -385q-9 -3 -19 -3zM208 505l99 117
q20 26 20 47q0 27 -20 70h-28q-15 -42 -37.5 -92t-51.5 -107z" />
    <glyph glyph-name="ocircumflex" unicode="&#xf4;" horiz-adv-x="428" 
d="M70 518l-24 -9q14 -59 18 -88l24 -403q-1 -17 -4.5 -33.5t-9.5 -34.5l52 -71q26 0 26 25l1 56l265 10v25l-32 26l51 391q0 11 36 41l-63 56l-34 -40l-259 -26q-5 14 -12 30.5l-16 36.5zM305 23l-156 -3l-22 366l244 25l-47 -385q-9 -3 -19 -3zM81 553l84 -31q12 38 37 68
l49 58l35 -58.5t25 -39.5q14 -22 27 -25q6 1 19.5 3.5l28.5 5.5q34 9 34 24q0 16 -25 20q-35 36 -86 99t-118 156l-25 -29l60 -111q-45 -48 -81 -76t-64 -40v-24z" />
    <glyph glyph-name="otilde" unicode="&#xf5;" horiz-adv-x="428" 
d="M70 518l-24 -9q14 -59 18 -88l24 -403q-1 -17 -4.5 -33.5t-9.5 -34.5l52 -71q26 0 26 25l1 56l265 10v25l-32 26l51 391q0 11 36 41l-63 56l-34 -40l-259 -26q-5 14 -12 30.5l-16 36.5zM305 23l-156 -3l-22 366l244 25l-47 -385q-9 -3 -19 -3zM442 634l-68 25
q-5 -15 -12 -28t-17 -24l-32 -39q-23 26 -52.5 64.5l-67.5 92.5l-23 -28l44 -82q-32 -34 -58.5 -54t-47.5 -29v-23l69 -25q9 33 27 52l31 38l24 -39.5t18 -27.5q10 -15 24 -19q5 1 15 2.5t21 3.5q28 9 28 21q0 10 -5 13.5t-16 5.5q0 1 -1 1q29 31 54 49t45 27v23z" />
    <glyph glyph-name="odieresis" unicode="&#xf6;" horiz-adv-x="428" 
d="M70 518l-24 -9q14 -59 18 -88l24 -403q-1 -17 -4.5 -33.5t-9.5 -34.5l52 -71q26 0 26 25l1 56l265 10v25l-32 26l51 391q0 11 36 41l-63 56l-34 -40l-259 -26q-5 14 -12 30.5l-16 36.5zM305 23l-156 -3l-22 366l244 25l-47 -385q-9 -3 -19 -3zM217 550q0 53 -12 67
q-6 6 -16 6q-6 0 -14 -2.5t-16 -6.5t-14.5 -8.5t-9.5 -8.5l2 3q-6 -6 -6 -19q0 -8 0.5 -12t1.5 -10q3 -15 5.5 -23.5t5.5 -12t7.5 -4.5t11.5 -1q8 0 17.5 3t17.5 8t13.5 10.5t5.5 10.5zM372 553q0 53 -12 67q-6 6 -16 6q-6 0 -14 -2.5t-16 -6.5t-14.5 -8.5t-9.5 -8.5l2 3
q-6 -6 -6 -19q0 -8 0.5 -12t1.5 -10q3 -15 5.5 -23.5t5.5 -12t7.5 -4.5t11.5 -1q8 0 17.5 3t17.5 8t13.5 10.5t5.5 10.5z" />
    <glyph glyph-name="divide" unicode="&#xf7;" horiz-adv-x="449" 
d="M402 348q-31 -6 -62.5 -11t-59.5 -5q-21 0 -43 3h-231l76 -69q11 2 17 2h11h25h23q13 0 27 1l257 1l11 22zM290 403q0 53 -12 67q-6 6 -16 6q-6 0 -14 -2.5t-16 -6.5t-14.5 -8.5t-9.5 -8.5l2 3q-6 -6 -6 -19q0 -8 0.5 -12t1.5 -10q3 -15 5.5 -23.5t5.5 -12t7.5 -4.5
t11.5 -1q8 0 17.5 3t17.5 8t13.5 10.5t5.5 10.5zM287 160q0 53 -12 67q-6 6 -16 6q-6 0 -14 -2.5t-16 -6.5t-14.5 -8.5t-9.5 -8.5l2 3q-6 -6 -6 -19q0 -8 0.5 -12t1.5 -10q3 -15 5.5 -23.5t5.5 -12t7.5 -4.5t11.5 -1q8 0 17.5 3t17.5 8t13.5 10.5t5.5 10.5z" />
    <glyph glyph-name="oslash" unicode="&#xf8;" horiz-adv-x="428" 
d="M254 601q2 -16 2.5 -22.5t0.5 -11.5q0 -41 -12 -108l-158 -16q-5 15 -14 34.5l-20 45.5l-37 -14q14 -59 18 -88l24 -403q-1 -17 -4.5 -33.5t-9.5 -34.5l52 -71q26 0 26 25l1 56l24 1q-4 -24 -6.5 -46t-4.5 -42l-8 -87l107 17q-37 44 -37 106q0 24 3 54l187 7v25l-32 26
l51 391q0 11 36 41l-63 56l-34 -40l-37 -4q31 78 84 162l-23 28zM226 367l1 1q-9 -34 -18.5 -75.5t-18.5 -87t-17.5 -93t-15.5 -92.5h-38l-22 366l136 14q-2 -8 -3.5 -16.5t-3.5 -16.5zM275 23l-64 -2q2 10 4 18q6 40 15 91.5t19.5 103t21 97.5t18.5 75l52 5l-47 -385
q-9 -3 -19 -3z" />
    <glyph glyph-name="ugrave" unicode="&#xf9;" horiz-adv-x="419" 
d="M54 2l70 -56l27 42l219 24l25 -52l36 13q-6 42 -9.5 70.5t-3.5 45.5v272q2 37 16 66q-19 61 -38 95q-30 0 -34 -34q-4 -10 -5 -32t-1 -55v-332l-209 -24v317v20q0 10 1 20l68 -44l28 28q-37 33 -66 62.5t-50 56.5q-5 5 -15 5q-17 0 -20 -24q-3 -20 -4.5 -46.5t-2.5 -61.5
v-325l-8 -25q-2 -3 -7 -8.5t-17 -17.5zM79 30q0 -1 -1 -2zM202 758l-18 -35q29 -57 51.5 -107t37.5 -92h28q20 40 20 70q0 20 -20 46z" />
    <glyph glyph-name="uacute" unicode="&#xfa;" horiz-adv-x="419" 
d="M54 2l70 -56l27 42l219 24l25 -52l36 13q-6 42 -9.5 70.5t-3.5 45.5v272q2 37 16 66q-19 61 -38 95q-30 0 -34 -34q-4 -10 -5 -32t-1 -55v-332l-209 -24v317v20q0 10 1 20l68 -44l28 28q-37 33 -66 62.5t-50 56.5q-5 5 -15 5q-17 0 -20 -24q-3 -20 -4.5 -46.5t-2.5 -61.5
v-325l-8 -25q-2 -3 -7 -8.5t-17 -17.5zM79 30q0 -1 -1 -2zM213 503l99 117q20 26 20 47q0 27 -20 70h-28q-15 -42 -37.5 -92t-51.5 -107z" />
    <glyph glyph-name="ucircumflex" unicode="&#xfb;" horiz-adv-x="419" 
d="M54 2l70 -56l27 42l219 24l25 -52l36 13q-6 42 -9.5 70.5t-3.5 45.5v272q2 37 16 66q-19 61 -38 95q-30 0 -34 -34q-4 -10 -5 -32t-1 -55v-332l-209 -24v317v20q0 10 1 20l68 -44l28 28q-37 33 -66 62.5t-50 56.5q-5 5 -15 5q-17 0 -20 -24q-3 -20 -4.5 -46.5t-2.5 -61.5
v-325l-8 -25q-2 -3 -7 -8.5t-17 -17.5zM79 30q0 -1 -1 -2zM83 535l84 -31q12 38 37 68l49 58l35 -58.5t25 -39.5q14 -22 27 -25q6 1 19.5 3.5l28.5 5.5q34 9 34 24q0 16 -25 20q-35 36 -86 99t-118 156l-25 -29l60 -111q-45 -48 -81 -76t-64 -40v-24z" />
    <glyph glyph-name="udieresis" unicode="&#xfc;" horiz-adv-x="419" 
d="M54 2l70 -56l27 42l219 24l25 -52l36 13q-6 42 -9.5 70.5t-3.5 45.5v272q2 37 16 66q-19 61 -38 95q-30 0 -34 -34q-4 -10 -5 -32t-1 -55v-332l-209 -24v317v20q0 10 1 20l68 -44l28 28q-37 33 -66 62.5t-50 56.5q-5 5 -15 5q-17 0 -20 -24q-3 -20 -4.5 -46.5t-2.5 -61.5
v-325l-8 -25q-2 -3 -7 -8.5t-17 -17.5zM79 30q0 -1 -1 -2zM224 554q0 53 -12 67q-6 6 -16 6q-6 0 -14 -2.5t-16 -6.5t-14.5 -8.5t-9.5 -8.5l2 3q-6 -6 -6 -19q0 -8 0.5 -12t1.5 -10q3 -15 5.5 -23.5t5.5 -12t7.5 -4.5t11.5 -1q8 0 17.5 3t17.5 8t13.5 10.5t5.5 10.5z
M379 557q0 53 -12 67q-6 6 -16 6q-6 0 -14 -2.5t-16 -6.5t-14.5 -8.5t-9.5 -8.5l2 3q-6 -6 -6 -19q0 -8 0.5 -12t1.5 -10q3 -15 5.5 -23.5t5.5 -12t7.5 -4.5t11.5 -1q8 0 17.5 3t17.5 8t13.5 10.5t5.5 10.5z" />
    <glyph glyph-name="yacute" unicode="&#xfd;" horiz-adv-x="510" 
d="M233 -52l34 43l127 23v-256q0 -41 -24 -86l80 -64l22 26q-17 45 -17 85v308l155 34l-73 49q-26 -11 -39 -14l-43 -11q2 36 5 74.5t8 81.5q10 97 52 207v-1q35 87 106 167l-18 35q-95 -94 -140 -186q-41 -94 -58 -206q-8 -48 -11.5 -94t-4.5 -92l-124 -24v373
q0 100 -110 100q-35 0 -61 -0.5t-55 -5.5q19 -69 30 -148.5t17 -171.5h45l-1 261q0 2 5.5 3t19.5 1q45 0 45 -39l-1 -372q-3 -19 -37 -41zM328 546l99 117q20 26 20 47q0 27 -20 70h-28q-15 -42 -37.5 -92t-51.5 -107z" />
    <glyph glyph-name="thorn" unicode="&#xfe;" horiz-adv-x="403" 
d="M51 824l-26 -15q22 -60 22 -148l1 -849q-1 -36 -17 -65q11 -31 21.5 -54t20.5 -40q28 0 33 34q6 21 6 86v564l194 29q-21 -278 -48 -405l-113 69l-27 -27l97.5 -87t51.5 -52q13 -8 22 -8q21 0 33 83v-1q10 45 22.5 151.5t29.5 279.5q1 11 31 41l-67 61l-36 -48l-190 -29
v266q4 68 33 92z" />
    <glyph glyph-name="ydieresis" unicode="&#xff;" horiz-adv-x="510" 
d="M233 -52l34 43l127 23v-256q0 -41 -24 -86l80 -64l22 26q-17 45 -17 85v308l155 34l-73 49q-26 -11 -39 -14l-43 -11q2 36 5 74.5t8 81.5q10 97 52 207v-1q35 87 106 167l-18 35q-95 -94 -140 -186q-41 -94 -58 -206q-8 -48 -11.5 -94t-4.5 -92l-124 -24v373
q0 100 -110 100q-35 0 -61 -0.5t-55 -5.5q19 -69 30 -148.5t17 -171.5h45l-1 261q0 2 5.5 3t19.5 1q45 0 45 -39l-1 -372q-3 -19 -37 -41zM322 582q0 53 -12 67q-6 6 -16 6q-6 0 -14 -2.5t-16 -6.5t-14.5 -8.5t-9.5 -8.5l2 3q-6 -6 -6 -19q0 -8 0.5 -12t1.5 -10
q3 -15 5.5 -23.5t5.5 -12t7.5 -4.5t11.5 -1q8 0 17.5 3t17.5 8t13.5 10.5t5.5 10.5zM477 585q0 53 -12 67q-6 6 -16 6q-6 0 -14 -2.5t-16 -6.5t-14.5 -8.5t-9.5 -8.5l2 3q-6 -6 -6 -19q0 -8 0.5 -12t1.5 -10q3 -15 5.5 -23.5t5.5 -12t7.5 -4.5t11.5 -1q8 0 17.5 3t17.5 8
t13.5 10.5t5.5 10.5z" />
    </font>
</defs>
</svg>
